#N canvas 160 160 1920 1026 12;
#X obj 1303 164 osc~ 440;
#X obj 159 510 dac~;
#X floatatom 1303 9 5 0 0 0 - - - 0;
#X floatatom 1421 95 5 0 0 0 - - - 0;
#X obj 1421 140 osc~;
#X obj 1420 191 *~ 0.75;
#X obj 1420 56 * 2;
#X floatatom 1506 166 5 0 0 0 - - - 0;
#X obj 1506 211 osc~;
#X obj 1505 262 *~ 0.75;
#X obj 1505 127 * 2;
#X floatatom 1589 246 5 0 0 0 - - - 0;
#X obj 1589 291 osc~;
#X obj 1588 342 *~ 0.75;
#X obj 1588 207 * 2;
#X floatatom 1700 346 5 0 0 0 - - - 0;
#X obj 1700 391 osc~;
#X obj 1699 442 *~ 0.75;
#X obj 1699 307 * 2;
#X obj 1337 544 *~ 0.1;
#X floatatom 156 174 5 0 0 0 - - - 0;
#X floatatom 274 275 5 0 0 0 - - - 0;
#X obj 274 320 osc~;
#X obj 273 371 *~ 0.75;
#X obj 273 236 * 2;
#X obj 163 451 *~ 0.1;
#X floatatom 363 276 5 0 0 0 - - - 0;
#X obj 363 321 osc~;
#X obj 362 372 *~ 0.75;
#X floatatom 456 273 5 0 0 0 - - - 0;
#X obj 456 318 osc~;
#X obj 455 369 *~ 0.75;
#X floatatom 543 276 5 0 0 0 - - - 0;
#X obj 543 321 osc~;
#X obj 542 372 *~ 0.75;
#X obj 362 237 * 3;
#X obj 455 234 * 4;
#X obj 542 237 * 5;
#X obj 160 312 osc~;
#X obj 154 42 loadbang;
#X msg 153 100 440;
#X obj 686 506 dac~;
#X floatatom 683 170 5 0 0 0 - - - 0;
#X floatatom 801 271 5 0 0 0 - - - 0;
#X obj 801 316 osc~;
#X obj 800 367 *~ 0.75;
#X obj 690 447 *~ 0.1;
#X floatatom 890 272 5 0 0 0 - - - 0;
#X obj 890 317 osc~;
#X obj 889 368 *~ 0.75;
#X floatatom 983 269 5 0 0 0 - - - 0;
#X obj 983 314 osc~;
#X obj 982 365 *~ 0.75;
#X obj 687 308 osc~;
#X obj 1337 595 dac~;
#X obj 800 232 * 3;
#X obj 889 233 * 5;
#X obj 982 230 * 7;
#X obj 404 963 dac~;
#X floatatom 405 630 5 0 0 0 - - - 0;
#X floatatom 519 728 5 0 0 0 - - - 0;
#X obj 519 773 osc~;
#X obj 408 904 *~ 0.1;
#X floatatom 608 729 5 0 0 0 - - - 0;
#X obj 608 774 osc~;
#X obj 607 825 *~ 0.75;
#X floatatom 701 726 5 0 0 0 - - - 0;
#X obj 701 771 osc~;
#X obj 405 765 osc~;
#X obj 518 689 * 2.23;
#X obj 607 690 * 3.73;
#X obj 700 687 * 4.81;
#X floatatom 785 725 5 0 0 0 - - - 0;
#X obj 785 770 osc~;
#X floatatom 874 726 5 0 0 0 - - - 0;
#X obj 874 771 osc~;
#X floatatom 967 723 5 0 0 0 - - - 0;
#X obj 967 768 osc~;
#X obj 784 684 * 5.43;
#X obj 873 687 * 6.24;
#X obj 966 684 * 7.35;
#X floatatom 1061 723 5 0 0 0 - - - 0;
#X obj 1061 768 osc~;
#X obj 1060 684 * 8.12;
#X obj 518 824 *~ 0.85;
#X obj 700 822 *~ 0.1;
#X obj 784 821 *~ 0.65;
#X obj 873 822 *~ 0.2;
#X obj 966 819 *~ 0.55;
#X obj 1060 819 *~ 0.45;
#X text 222 74 valor preseteado al iniciar el patch;
#X text 667 625 inharmonics;
#X connect 0 0 19 0;
#X connect 2 0 6 0;
#X connect 2 0 0 0;
#X connect 3 0 4 0;
#X connect 3 0 10 0;
#X connect 4 0 5 0;
#X connect 5 0 19 0;
#X connect 6 0 3 0;
#X connect 7 0 8 0;
#X connect 7 0 14 0;
#X connect 8 0 9 0;
#X connect 9 0 19 0;
#X connect 10 0 7 0;
#X connect 11 0 12 0;
#X connect 11 0 18 0;
#X connect 12 0 13 0;
#X connect 13 0 19 0;
#X connect 14 0 11 0;
#X connect 15 0 16 0;
#X connect 16 0 17 0;
#X connect 17 0 19 0;
#X connect 18 0 15 0;
#X connect 20 0 24 0;
#X connect 20 0 35 0;
#X connect 20 0 36 0;
#X connect 20 0 37 0;
#X connect 20 0 38 0;
#X connect 21 0 22 0;
#X connect 22 0 23 0;
#X connect 23 0 25 0;
#X connect 24 0 21 0;
#X connect 26 0 27 0;
#X connect 27 0 28 0;
#X connect 28 0 25 0;
#X connect 29 0 30 0;
#X connect 30 0 31 0;
#X connect 31 0 25 0;
#X connect 32 0 33 0;
#X connect 33 0 34 0;
#X connect 34 0 25 0;
#X connect 35 0 26 0;
#X connect 36 0 29 0;
#X connect 37 0 32 0;
#X connect 38 0 25 0;
#X connect 39 0 40 0;
#X connect 40 0 20 0;
#X connect 42 0 53 0;
#X connect 42 0 55 0;
#X connect 42 0 56 0;
#X connect 42 0 57 0;
#X connect 43 0 44 0;
#X connect 44 0 45 0;
#X connect 45 0 46 0;
#X connect 47 0 48 0;
#X connect 48 0 49 0;
#X connect 49 0 46 0;
#X connect 50 0 51 0;
#X connect 51 0 52 0;
#X connect 52 0 46 0;
#X connect 53 0 46 0;
#X connect 55 0 43 0;
#X connect 56 0 47 0;
#X connect 57 0 50 0;
#X connect 59 0 68 0;
#X connect 59 0 69 0;
#X connect 59 0 70 0;
#X connect 59 0 71 0;
#X connect 59 0 78 0;
#X connect 59 0 79 0;
#X connect 59 0 80 0;
#X connect 59 0 83 0;
#X connect 60 0 61 0;
#X connect 61 0 84 0;
#X connect 62 0 58 0;
#X connect 62 0 58 1;
#X connect 63 0 64 0;
#X connect 64 0 65 0;
#X connect 65 0 62 0;
#X connect 66 0 67 0;
#X connect 67 0 85 0;
#X connect 68 0 62 0;
#X connect 69 0 60 0;
#X connect 70 0 63 0;
#X connect 71 0 66 0;
#X connect 72 0 73 0;
#X connect 73 0 86 0;
#X connect 74 0 75 0;
#X connect 75 0 87 0;
#X connect 76 0 77 0;
#X connect 77 0 88 0;
#X connect 78 0 72 0;
#X connect 79 0 74 0;
#X connect 80 0 76 0;
#X connect 81 0 82 0;
#X connect 82 0 89 0;
#X connect 83 0 81 0;
#X connect 84 0 62 0;
#X connect 85 0 62 0;
#X connect 86 0 62 0;
#X connect 87 0 62 0;
#X connect 88 0 62 0;
#X connect 89 0 62 0;
