#N canvas 96 96 1920 1026 12;
#X floatatom 309 55 5 0 0 0 - - - 0;
#X obj 277 49 tgl 25 0 empty empty empty 0 -10 0 12 #ffc7c6 #000000 #000000 0 1;
#X obj 277 84 metro;
#X obj 277 111 bng 19 250 50 0 empty empty empty 0 -10 0 12 #fcfcfc #000000 #000000;
#X obj 277 164 int 1;
#X floatatom 277 197 5 0 0 0 - - - 0;
#X obj 334 190 + 1;
#X obj 162 84 loadbang;
#X obj 233 84 sel 0;
#X obj 233 111 bng 19 250 50 0 empty empty empty 0 -10 0 12 #feffc6 #000000 #000000;
#X msg 233 138 -1;
#X text 171 114 reset;
#X text 340 105 Clock;
#X msg 17 82 60000;
#X obj 17 27 loadbang;
#X obj 84 27 loadbang;
#X floatatom 84 86 5 0 0 0 - - - 0;
#X floatatom 66 190 5 0 0 0 - - - 0;
#X obj 66 121 bng 19 250 50 0 empty empty empty 0 -10 0 12 #fcfcfc #000000 #000000;
#X obj 66 161 /;
#X obj 66 221 s tempo;
#X obj 309 17 r tempo;
#X text 94 108 bpm;
#X obj 277 262 + 1;
#X obj 277 230 % 8;
#X floatatom 277 296 5 0 0 0 - - - 0;
#X obj 170 322 + 1;
#X floatatom 170 356 5 0 0 0 - - - 0;
#X obj 170 385 sel 1;
#X obj 170 415 bng 19 250 50 0 empty empty empty 0 -10 0 12 #fcfcfc #000000 #000000;
#X obj 277 332 sel 1 2 3 4 5 6 7 8;
#X obj 472 513 r New_pattern;
#X obj 170 444 s New_pattern;
#X obj 472 547 bng 19 250 50 0 empty empty empty 0 -10 0 12 #fcfcfc #000000 #000000;
#X obj 472 581 random 100;
#X floatatom 472 615 5 0 0 0 - - - 0;
#X obj 472 648 < 80;
#X floatatom 472 682 5 0 0 0 - - - 0;
#X obj 472 715 sel 1;
#X obj 472 749 bng 19 250 50 0 empty empty empty 0 -10 0 12 #fcfcfc #000000 #000000;
#X obj 735 20 r New_pattern;
#X obj 735 54 bng 19 250 50 0 empty empty empty 0 -10 0 12 #fcfcfc #000000 #000000;
#X obj 735 88 random 100;
#X floatatom 735 122 5 0 0 0 - - - 0;
#X obj 277 367 bng 19 250 50 0 empty empty empty 0 -10 0 12 #fcfcfc #000000 #000000;
#X obj 307 367 bng 19 250 50 0 empty empty empty 0 -10 0 12 #fcfcfc #000000 #000000;
#X obj 337 367 bng 19 250 50 0 empty empty empty 0 -10 0 12 #fcfcfc #000000 #000000;
#X obj 367 367 bng 19 250 50 0 empty empty empty 0 -10 0 12 #fcfcfc #000000 #000000;
#X obj 397 367 bng 19 250 50 0 empty empty empty 0 -10 0 12 #fcfcfc #000000 #000000;
#X obj 427 367 bng 19 250 50 0 empty empty empty 0 -10 0 12 #fcfcfc #000000 #000000;
#X obj 457 367 bng 19 250 50 0 empty empty empty 0 -10 0 12 #fcfcfc #000000 #000000;
#X obj 487 367 bng 19 250 50 0 empty empty empty 0 -10 0 12 #fcfcfc #000000 #000000;
#X obj 277 562 s One;
#X obj 307 538 s Two;
#X obj 337 513 s Three;
#X obj 367 488 s Four;
#X obj 397 464 s Five;
#X obj 427 439 s Six;
#X obj 457 414 s Seven;
#X obj 487 392 s Eight;
#X obj 735 189 tgl 19 0 empty empty empty 0 -10 0 12 #fcfcfc #000000 #000000 0 1;
#X obj 684 155 r One;
#X obj 696 188 bng 19 250 50 0 empty empty empty 0 -10 0 12 #fcfcfc #000000 #000000;
#X obj 696 222 spigot;
#X obj 696 253 bng 19 250 50 0 empty empty empty 0 -10 0 12 #fcfcfc #000000 #000000;
#X obj 885 20 r New_pattern;
#X obj 885 54 bng 19 250 50 0 empty empty empty 0 -10 0 12 #fcfcfc #000000 #000000;
#X obj 885 88 random 100;
#X floatatom 885 122 5 0 0 0 - - - 0;
#X obj 885 189 tgl 19 0 empty empty empty 0 -10 0 12 #fcfcfc #000000 #000000 0 1;
#X obj 846 188 bng 19 250 50 0 empty empty empty 0 -10 0 12 #fcfcfc #000000 #000000;
#X obj 846 222 spigot;
#X obj 846 253 bng 19 250 50 0 empty empty empty 0 -10 0 12 #fcfcfc #000000 #000000;
#X obj 885 155 < 80;
#X obj 1035 20 r New_pattern;
#X obj 1035 54 bng 19 250 50 0 empty empty empty 0 -10 0 12 #fcfcfc #000000 #000000;
#X obj 1035 88 random 100;
#X floatatom 1035 122 5 0 0 0 - - - 0;
#X obj 1035 189 tgl 19 0 empty empty empty 0 -10 0 12 #fcfcfc #000000 #000000 0 1;
#X obj 996 188 bng 19 250 50 0 empty empty empty 0 -10 0 12 #fcfcfc #000000 #000000;
#X obj 996 222 spigot;
#X obj 996 253 bng 19 250 50 0 empty empty empty 0 -10 0 12 #fcfcfc #000000 #000000;
#X obj 1185 20 r New_pattern;
#X obj 1185 54 bng 19 250 50 0 empty empty empty 0 -10 0 12 #fcfcfc #000000 #000000;
#X obj 1185 88 random 100;
#X floatatom 1185 122 5 0 0 0 - - - 0;
#X obj 1185 189 tgl 19 0 empty empty empty 0 -10 0 12 #fcfcfc #000000 #000000 0 1;
#X obj 1146 188 bng 19 250 50 0 empty empty empty 0 -10 0 12 #fcfcfc #000000 #000000;
#X obj 1146 222 spigot;
#X obj 1146 253 bng 19 250 50 0 empty empty empty 0 -10 0 12 #fcfcfc #000000 #000000;
#X obj 1335 20 r New_pattern;
#X obj 1335 54 bng 19 250 50 0 empty empty empty 0 -10 0 12 #fcfcfc #000000 #000000;
#X obj 1335 88 random 100;
#X floatatom 1335 122 5 0 0 0 - - - 0;
#X obj 1335 189 tgl 19 0 empty empty empty 0 -10 0 12 #fcfcfc #000000 #000000 0 1;
#X obj 1296 188 bng 19 250 50 0 empty empty empty 0 -10 0 12 #fcfcfc #000000 #000000;
#X obj 1296 222 spigot;
#X obj 1296 253 bng 19 250 50 0 empty empty empty 0 -10 0 12 #fcfcfc #000000 #000000;
#X obj 1485 20 r New_pattern;
#X obj 1485 54 bng 19 250 50 0 empty empty empty 0 -10 0 12 #fcfcfc #000000 #000000;
#X obj 1485 88 random 100;
#X floatatom 1485 122 5 0 0 0 - - - 0;
#X obj 1485 189 tgl 19 0 empty empty empty 0 -10 0 12 #fcfcfc #000000 #000000 0 1;
#X obj 1446 188 bng 19 250 50 0 empty empty empty 0 -10 0 12 #fcfcfc #000000 #000000;
#X obj 1446 222 spigot;
#X obj 1446 253 bng 19 250 50 0 empty empty empty 0 -10 0 12 #fcfcfc #000000 #000000;
#X obj 1635 20 r New_pattern;
#X obj 1635 54 bng 19 250 50 0 empty empty empty 0 -10 0 12 #fcfcfc #000000 #000000;
#X obj 1635 88 random 100;
#X floatatom 1635 122 5 0 0 0 - - - 0;
#X obj 1635 189 tgl 19 0 empty empty empty 0 -10 0 12 #fcfcfc #000000 #000000 0 1;
#X obj 1596 188 bng 19 250 50 0 empty empty empty 0 -10 0 12 #fcfcfc #000000 #000000;
#X obj 1596 222 spigot;
#X obj 1596 253 bng 19 250 50 0 empty empty empty 0 -10 0 12 #fcfcfc #000000 #000000;
#X obj 1785 20 r New_pattern;
#X obj 1785 54 bng 19 250 50 0 empty empty empty 0 -10 0 12 #fcfcfc #000000 #000000;
#X obj 1785 88 random 100;
#X floatatom 1785 122 5 0 0 0 - - - 0;
#X obj 1785 189 tgl 19 0 empty empty empty 0 -10 0 12 #fcfcfc #000000 #000000 0 1;
#X obj 1746 188 bng 19 250 50 0 empty empty empty 0 -10 0 12 #fcfcfc #000000 #000000;
#X obj 1746 222 spigot;
#X obj 1746 253 bng 19 250 50 0 empty empty empty 0 -10 0 12 #fcfcfc #000000 #000000;
#X obj 834 155 r Two;
#X obj 975 155 r Three;
#X obj 1134 155 r Four;
#X obj 1284 155 r Five;
#X obj 1434 155 r Six;
#X obj 1576 155 r Seven;
#X obj 1727 155 r Eight;
#X obj 1157 295 s Kick;
#X obj 735 155 < 100;
#X obj 1035 155 < 5;
#X obj 1185 155 < 45;
#X obj 1335 155 < 100;
#X obj 1485 155 < 70;
#X obj 1635 155 < 5;
#X obj 1785 155 < 60;
#X obj 735 352 r New_pattern;
#X obj 735 386 bng 19 250 50 0 empty empty empty 0 -10 0 12 #fcfcfc #000000 #000000;
#X obj 735 420 random 100;
#X floatatom 735 454 5 0 0 0 - - - 0;
#X obj 735 521 tgl 19 0 empty empty empty 0 -10 0 12 #fcfcfc #000000 #000000 0 1;
#X obj 684 487 r One;
#X obj 696 520 bng 19 250 50 0 empty empty empty 0 -10 0 12 #fcfcfc #000000 #000000;
#X obj 696 554 spigot;
#X obj 696 588 bng 19 250 50 0 empty empty empty 0 -10 0 12 #fcfcfc #000000 #000000;
#X obj 885 352 r New_pattern;
#X obj 885 386 bng 19 250 50 0 empty empty empty 0 -10 0 12 #fcfcfc #000000 #000000;
#X obj 885 420 random 100;
#X floatatom 885 454 5 0 0 0 - - - 0;
#X obj 885 521 tgl 19 0 empty empty empty 0 -10 0 12 #fcfcfc #000000 #000000 0 1;
#X obj 846 520 bng 19 250 50 0 empty empty empty 0 -10 0 12 #fcfcfc #000000 #000000;
#X obj 846 554 spigot;
#X obj 846 588 bng 19 250 50 0 empty empty empty 0 -10 0 12 #fcfcfc #000000 #000000;
#X obj 1035 352 r New_pattern;
#X obj 1035 386 bng 19 250 50 0 empty empty empty 0 -10 0 12 #fcfcfc #000000 #000000;
#X obj 1035 420 random 100;
#X floatatom 1035 454 5 0 0 0 - - - 0;
#X obj 1035 521 tgl 19 0 empty empty empty 0 -10 0 12 #fcfcfc #000000 #000000 0 1;
#X obj 996 520 bng 19 250 50 0 empty empty empty 0 -10 0 12 #fcfcfc #000000 #000000;
#X obj 996 554 spigot;
#X obj 996 588 bng 19 250 50 0 empty empty empty 0 -10 0 12 #fcfcfc #000000 #000000;
#X obj 1185 352 r New_pattern;
#X obj 1185 386 bng 19 250 50 0 empty empty empty 0 -10 0 12 #fcfcfc #000000 #000000;
#X obj 1185 420 random 100;
#X floatatom 1185 454 5 0 0 0 - - - 0;
#X obj 1185 521 tgl 19 0 empty empty empty 0 -10 0 12 #fcfcfc #000000 #000000 0 1;
#X obj 1146 520 bng 19 250 50 0 empty empty empty 0 -10 0 12 #fcfcfc #000000 #000000;
#X obj 1146 554 spigot;
#X obj 1146 588 bng 19 250 50 0 empty empty empty 0 -10 0 12 #fcfcfc #000000 #000000;
#X obj 1335 352 r New_pattern;
#X obj 1335 386 bng 19 250 50 0 empty empty empty 0 -10 0 12 #fcfcfc #000000 #000000;
#X obj 1335 420 random 100;
#X floatatom 1335 454 5 0 0 0 - - - 0;
#X obj 1335 521 tgl 19 0 empty empty empty 0 -10 0 12 #fcfcfc #000000 #000000 0 1;
#X obj 1296 520 bng 19 250 50 0 empty empty empty 0 -10 0 12 #fcfcfc #000000 #000000;
#X obj 1296 554 spigot;
#X obj 1296 588 bng 19 250 50 0 empty empty empty 0 -10 0 12 #fcfcfc #000000 #000000;
#X obj 1485 352 r New_pattern;
#X obj 1485 386 bng 19 250 50 0 empty empty empty 0 -10 0 12 #fcfcfc #000000 #000000;
#X obj 1485 420 random 100;
#X floatatom 1485 454 5 0 0 0 - - - 0;
#X obj 1485 521 tgl 19 0 empty empty empty 0 -10 0 12 #fcfcfc #000000 #000000 0 1;
#X obj 1446 520 bng 19 250 50 0 empty empty empty 0 -10 0 12 #fcfcfc #000000 #000000;
#X obj 1446 554 spigot;
#X obj 1446 588 bng 19 250 50 0 empty empty empty 0 -10 0 12 #fcfcfc #000000 #000000;
#X obj 1635 352 r New_pattern;
#X obj 1635 386 bng 19 250 50 0 empty empty empty 0 -10 0 12 #fcfcfc #000000 #000000;
#X obj 1635 420 random 100;
#X floatatom 1635 454 5 0 0 0 - - - 0;
#X obj 1635 521 tgl 19 0 empty empty empty 0 -10 0 12 #fcfcfc #000000 #000000 0 1;
#X obj 1596 520 bng 19 250 50 0 empty empty empty 0 -10 0 12 #fcfcfc #000000 #000000;
#X obj 1596 554 spigot;
#X obj 1596 588 bng 19 250 50 0 empty empty empty 0 -10 0 12 #fcfcfc #000000 #000000;
#X obj 1785 352 r New_pattern;
#X obj 1785 386 bng 19 250 50 0 empty empty empty 0 -10 0 12 #fcfcfc #000000 #000000;
#X obj 1785 420 random 100;
#X floatatom 1785 454 5 0 0 0 - - - 0;
#X obj 1785 521 tgl 19 0 empty empty empty 0 -10 0 12 #fcfcfc #000000 #000000 0 1;
#X obj 1746 520 bng 19 250 50 0 empty empty empty 0 -10 0 12 #fcfcfc #000000 #000000;
#X obj 1746 554 spigot;
#X obj 1746 588 bng 19 250 50 0 empty empty empty 0 -10 0 12 #fcfcfc #000000 #000000;
#X obj 834 487 r Two;
#X obj 975 487 r Three;
#X obj 1134 487 r Four;
#X obj 1284 487 r Five;
#X obj 1434 487 r Six;
#X obj 1576 487 r Seven;
#X obj 1727 487 r Eight;
#X obj 735 682 r New_pattern;
#X obj 735 716 bng 19 250 50 0 empty empty empty 0 -10 0 12 #fcfcfc #000000 #000000;
#X obj 735 750 random 100;
#X floatatom 735 784 5 0 0 0 - - - 0;
#X obj 735 851 tgl 19 0 empty empty empty 0 -10 0 12 #fcfcfc #000000 #000000 0 1;
#X obj 684 817 r One;
#X obj 696 850 bng 19 250 50 0 empty empty empty 0 -10 0 12 #fcfcfc #000000 #000000;
#X obj 696 884 spigot;
#X obj 696 918 bng 19 250 50 0 empty empty empty 0 -10 0 12 #fcfcfc #000000 #000000;
#X obj 885 682 r New_pattern;
#X obj 885 716 bng 19 250 50 0 empty empty empty 0 -10 0 12 #fcfcfc #000000 #000000;
#X obj 885 750 random 100;
#X floatatom 885 784 5 0 0 0 - - - 0;
#X obj 885 851 tgl 19 0 empty empty empty 0 -10 0 12 #fcfcfc #000000 #000000 0 1;
#X obj 846 850 bng 19 250 50 0 empty empty empty 0 -10 0 12 #fcfcfc #000000 #000000;
#X obj 846 884 spigot;
#X obj 846 918 bng 19 250 50 0 empty empty empty 0 -10 0 12 #fcfcfc #000000 #000000;
#X obj 885 817 < 80;
#X obj 1035 682 r New_pattern;
#X obj 1035 716 bng 19 250 50 0 empty empty empty 0 -10 0 12 #fcfcfc #000000 #000000;
#X obj 1035 750 random 100;
#X floatatom 1035 784 5 0 0 0 - - - 0;
#X obj 1035 851 tgl 19 0 empty empty empty 0 -10 0 12 #fcfcfc #000000 #000000 0 1;
#X obj 996 850 bng 19 250 50 0 empty empty empty 0 -10 0 12 #fcfcfc #000000 #000000;
#X obj 996 884 spigot;
#X obj 996 918 bng 19 250 50 0 empty empty empty 0 -10 0 12 #fcfcfc #000000 #000000;
#X obj 1185 682 r New_pattern;
#X obj 1185 716 bng 19 250 50 0 empty empty empty 0 -10 0 12 #fcfcfc #000000 #000000;
#X obj 1185 750 random 100;
#X floatatom 1185 784 5 0 0 0 - - - 0;
#X obj 1185 851 tgl 19 0 empty empty empty 0 -10 0 12 #fcfcfc #000000 #000000 0 1;
#X obj 1146 850 bng 19 250 50 0 empty empty empty 0 -10 0 12 #fcfcfc #000000 #000000;
#X obj 1146 884 spigot;
#X obj 1146 918 bng 19 250 50 0 empty empty empty 0 -10 0 12 #fcfcfc #000000 #000000;
#X obj 1335 682 r New_pattern;
#X obj 1335 716 bng 19 250 50 0 empty empty empty 0 -10 0 12 #fcfcfc #000000 #000000;
#X obj 1335 750 random 100;
#X floatatom 1335 784 5 0 0 0 - - - 0;
#X obj 1335 851 tgl 19 0 empty empty empty 0 -10 0 12 #fcfcfc #000000 #000000 0 1;
#X obj 1296 850 bng 19 250 50 0 empty empty empty 0 -10 0 12 #fcfcfc #000000 #000000;
#X obj 1296 884 spigot;
#X obj 1296 918 bng 19 250 50 0 empty empty empty 0 -10 0 12 #fcfcfc #000000 #000000;
#X obj 1485 682 r New_pattern;
#X obj 1485 716 bng 19 250 50 0 empty empty empty 0 -10 0 12 #fcfcfc #000000 #000000;
#X obj 1485 750 random 100;
#X floatatom 1485 784 5 0 0 0 - - - 0;
#X obj 1485 851 tgl 19 0 empty empty empty 0 -10 0 12 #fcfcfc #000000 #000000 0 1;
#X obj 1446 850 bng 19 250 50 0 empty empty empty 0 -10 0 12 #fcfcfc #000000 #000000;
#X obj 1446 884 spigot;
#X obj 1446 918 bng 19 250 50 0 empty empty empty 0 -10 0 12 #fcfcfc #000000 #000000;
#X obj 1635 682 r New_pattern;
#X obj 1635 716 bng 19 250 50 0 empty empty empty 0 -10 0 12 #fcfcfc #000000 #000000;
#X obj 1635 750 random 100;
#X floatatom 1635 784 5 0 0 0 - - - 0;
#X obj 1635 851 tgl 19 0 empty empty empty 0 -10 0 12 #fcfcfc #000000 #000000 0 1;
#X obj 1596 850 bng 19 250 50 0 empty empty empty 0 -10 0 12 #fcfcfc #000000 #000000;
#X obj 1596 884 spigot;
#X obj 1596 918 bng 19 250 50 0 empty empty empty 0 -10 0 12 #fcfcfc #000000 #000000;
#X obj 1785 682 r New_pattern;
#X obj 1785 716 bng 19 250 50 0 empty empty empty 0 -10 0 12 #fcfcfc #000000 #000000;
#X obj 1785 750 random 100;
#X floatatom 1785 784 5 0 0 0 - - - 0;
#X obj 1785 851 tgl 19 0 empty empty empty 0 -10 0 12 #fcfcfc #000000 #000000 0 1;
#X obj 1746 850 bng 19 250 50 0 empty empty empty 0 -10 0 12 #fcfcfc #000000 #000000;
#X obj 1746 884 spigot;
#X obj 1746 918 bng 19 250 50 0 empty empty empty 0 -10 0 12 #fcfcfc #000000 #000000;
#X obj 834 817 r Two;
#X obj 975 817 r Three;
#X obj 1134 817 r Four;
#X obj 1284 817 r Five;
#X obj 1434 817 r Six;
#X obj 1576 817 r Seven;
#X obj 1727 817 r Eight;
#X obj 735 817 < 100;
#X obj 1185 817 < 45;
#X obj 1335 817 < 100;
#X obj 1485 817 < 70;
#X obj 1785 817 < 60;
#X obj 1157 629 s Snare;
#X obj 1157 963 s HiHat;
#X obj 47 545 r Kick;
#X obj 47 583 bng 19 250 50 0 empty empty empty 0 -10 0 12 #fcfcfc #000000 #000000;
#X obj 47 656 readsf~;
#X obj 48 689 *~;
#X obj 117 650 vsl 19 50 0 10 0 0 empty empty empty 0 -9 0 12 #fcfcfc #000000 #000000 0 1;
#X obj 47 723 dac~;
#X msg 47 614 open samples/TR-808_Kick_Max_Tone_Max_Decay.wav \, 1;
#X obj 309 806 bng 19 250 50 0 empty empty empty 0 -10 0 12 #fcfcfc #000000 #000000;
#X obj 309 879 readsf~;
#X obj 310 912 *~;
#X obj 309 946 dac~;
#X obj 49 805 bng 19 250 50 0 empty empty empty 0 -10 0 12 #fcfcfc #000000 #000000;
#X obj 49 878 readsf~;
#X obj 50 911 *~;
#X obj 49 945 dac~;
#X obj 49 767 r Snare;
#X msg 49 836 open samples/Snarderum-03.wav \, 1;
#X msg 309 837 open samples/hihat.wav \, 1;
#X floatatom 117 715 5 0 0 0 - - - 0;
#X obj 126 874 vsl 19 50 0 2 0 0 empty empty empty 0 -9 0 12 #fcfcfc #000000 #000000 0 1;
#X floatatom 126 939 5 0 0 0 - - - 0;
#X obj 377 871 vsl 19 50 0 2 0 0 empty empty empty 0 -9 0 12 #fcfcfc #000000 #000000 0 1;
#X floatatom 377 936 5 0 2 0 - - - 0;
#X obj 309 768 r HiHat;
#X obj 735 487 < 1;
#X obj 885 487 < 1;
#X obj 1035 487 < 100;
#X obj 1185 487 < 65;
#X obj 1335 487 < 1;
#X obj 1485 487 < 1;
#X obj 1635 487 < 100;
#X obj 1785 487 < 50;
#X obj 1035 817 < 85;
#X obj 1635 817 < 75;
#X msg 84 57 145;
#X text 514 618 probabilidad de 80%: random entre 0 y 99 filtrando valores < 80;
#X text 63 282 change every 16 beats;
#X obj 170 290 % 16;
#X obj 170 255 spigot;
#X obj 209 205 tgl 19 0 empty empty empty 0 -10 0 12 #ffc7c6 #000000 #000000 0 1;
#X text 170 187 generative on;
#X connect 0 0 2 1;
#X connect 1 0 2 0;
#X connect 1 0 8 0;
#X connect 2 0 3 0;
#X connect 3 0 4 0;
#X connect 4 0 5 0;
#X connect 4 0 6 0;
#X connect 5 0 24 0;
#X connect 5 0 327 0;
#X connect 6 0 4 1;
#X connect 7 0 9 0;
#X connect 8 0 9 0;
#X connect 9 0 10 0;
#X connect 10 0 4 0;
#X connect 13 0 19 0;
#X connect 14 0 13 0;
#X connect 15 0 323 0;
#X connect 15 0 18 0;
#X connect 16 0 18 0;
#X connect 16 0 19 1;
#X connect 17 0 20 0;
#X connect 18 0 19 0;
#X connect 19 0 17 0;
#X connect 21 0 0 0;
#X connect 23 0 25 0;
#X connect 24 0 23 0;
#X connect 25 0 30 0;
#X connect 26 0 27 0;
#X connect 27 0 28 0;
#X connect 28 0 29 0;
#X connect 29 0 32 0;
#X connect 30 0 44 0;
#X connect 30 1 45 0;
#X connect 30 2 46 0;
#X connect 30 3 47 0;
#X connect 30 4 48 0;
#X connect 30 5 49 0;
#X connect 30 6 50 0;
#X connect 30 7 51 0;
#X connect 31 0 33 0;
#X connect 33 0 34 0;
#X connect 34 0 35 0;
#X connect 35 0 36 0;
#X connect 36 0 37 0;
#X connect 37 0 38 0;
#X connect 38 0 39 0;
#X connect 40 0 41 0;
#X connect 41 0 42 0;
#X connect 42 0 43 0;
#X connect 43 0 130 0;
#X connect 44 0 52 0;
#X connect 45 0 53 0;
#X connect 46 0 54 0;
#X connect 47 0 55 0;
#X connect 48 0 56 0;
#X connect 49 0 57 0;
#X connect 50 0 58 0;
#X connect 51 0 59 0;
#X connect 60 0 63 1;
#X connect 61 0 62 0;
#X connect 62 0 63 0;
#X connect 63 0 64 0;
#X connect 64 0 129 0;
#X connect 65 0 66 0;
#X connect 66 0 67 0;
#X connect 67 0 68 0;
#X connect 68 0 73 0;
#X connect 69 0 71 1;
#X connect 70 0 71 0;
#X connect 71 0 72 0;
#X connect 72 0 129 0;
#X connect 73 0 69 0;
#X connect 74 0 75 0;
#X connect 75 0 76 0;
#X connect 76 0 77 0;
#X connect 77 0 131 0;
#X connect 78 0 80 1;
#X connect 79 0 80 0;
#X connect 80 0 81 0;
#X connect 81 0 129 0;
#X connect 82 0 83 0;
#X connect 83 0 84 0;
#X connect 84 0 85 0;
#X connect 85 0 132 0;
#X connect 86 0 88 1;
#X connect 87 0 88 0;
#X connect 88 0 89 0;
#X connect 89 0 129 0;
#X connect 90 0 91 0;
#X connect 91 0 92 0;
#X connect 92 0 93 0;
#X connect 93 0 133 0;
#X connect 94 0 96 1;
#X connect 95 0 96 0;
#X connect 96 0 97 0;
#X connect 97 0 129 0;
#X connect 98 0 99 0;
#X connect 99 0 100 0;
#X connect 100 0 101 0;
#X connect 101 0 134 0;
#X connect 102 0 104 1;
#X connect 103 0 104 0;
#X connect 104 0 105 0;
#X connect 105 0 129 0;
#X connect 106 0 107 0;
#X connect 107 0 108 0;
#X connect 108 0 109 0;
#X connect 109 0 135 0;
#X connect 110 0 112 1;
#X connect 111 0 112 0;
#X connect 112 0 113 0;
#X connect 113 0 129 0;
#X connect 114 0 115 0;
#X connect 115 0 116 0;
#X connect 116 0 117 0;
#X connect 117 0 136 0;
#X connect 118 0 120 1;
#X connect 119 0 120 0;
#X connect 120 0 121 0;
#X connect 121 0 129 0;
#X connect 122 0 70 0;
#X connect 123 0 79 0;
#X connect 124 0 87 0;
#X connect 125 0 95 0;
#X connect 126 0 103 0;
#X connect 127 0 111 0;
#X connect 128 0 119 0;
#X connect 130 0 60 0;
#X connect 131 0 78 0;
#X connect 132 0 86 0;
#X connect 133 0 94 0;
#X connect 134 0 102 0;
#X connect 135 0 110 0;
#X connect 136 0 118 0;
#X connect 137 0 138 0;
#X connect 138 0 139 0;
#X connect 139 0 140 0;
#X connect 140 0 313 0;
#X connect 141 0 144 1;
#X connect 142 0 143 0;
#X connect 143 0 144 0;
#X connect 144 0 145 0;
#X connect 145 0 287 0;
#X connect 146 0 147 0;
#X connect 147 0 148 0;
#X connect 148 0 149 0;
#X connect 149 0 314 0;
#X connect 150 0 152 1;
#X connect 151 0 152 0;
#X connect 152 0 153 0;
#X connect 153 0 287 0;
#X connect 154 0 155 0;
#X connect 155 0 156 0;
#X connect 156 0 157 0;
#X connect 157 0 315 0;
#X connect 158 0 160 1;
#X connect 159 0 160 0;
#X connect 160 0 161 0;
#X connect 161 0 287 0;
#X connect 162 0 163 0;
#X connect 163 0 164 0;
#X connect 164 0 165 0;
#X connect 165 0 316 0;
#X connect 166 0 168 1;
#X connect 167 0 168 0;
#X connect 168 0 169 0;
#X connect 169 0 287 0;
#X connect 170 0 171 0;
#X connect 171 0 172 0;
#X connect 172 0 173 0;
#X connect 173 0 317 0;
#X connect 174 0 176 1;
#X connect 175 0 176 0;
#X connect 176 0 177 0;
#X connect 177 0 287 0;
#X connect 178 0 179 0;
#X connect 179 0 180 0;
#X connect 180 0 181 0;
#X connect 181 0 318 0;
#X connect 182 0 184 1;
#X connect 183 0 184 0;
#X connect 184 0 185 0;
#X connect 185 0 287 0;
#X connect 186 0 187 0;
#X connect 187 0 188 0;
#X connect 188 0 189 0;
#X connect 189 0 319 0;
#X connect 190 0 192 1;
#X connect 191 0 192 0;
#X connect 192 0 193 0;
#X connect 193 0 287 0;
#X connect 194 0 195 0;
#X connect 195 0 196 0;
#X connect 196 0 197 0;
#X connect 197 0 320 0;
#X connect 198 0 200 1;
#X connect 199 0 200 0;
#X connect 200 0 201 0;
#X connect 201 0 287 0;
#X connect 202 0 151 0;
#X connect 203 0 159 0;
#X connect 204 0 167 0;
#X connect 205 0 175 0;
#X connect 206 0 183 0;
#X connect 207 0 191 0;
#X connect 208 0 199 0;
#X connect 209 0 210 0;
#X connect 210 0 211 0;
#X connect 211 0 212 0;
#X connect 212 0 282 0;
#X connect 213 0 216 1;
#X connect 214 0 215 0;
#X connect 215 0 216 0;
#X connect 216 0 217 0;
#X connect 217 0 288 0;
#X connect 218 0 219 0;
#X connect 219 0 220 0;
#X connect 220 0 221 0;
#X connect 221 0 226 0;
#X connect 222 0 224 1;
#X connect 223 0 224 0;
#X connect 224 0 225 0;
#X connect 225 0 288 0;
#X connect 226 0 222 0;
#X connect 227 0 228 0;
#X connect 228 0 229 0;
#X connect 229 0 230 0;
#X connect 230 0 321 0;
#X connect 231 0 233 1;
#X connect 232 0 233 0;
#X connect 233 0 234 0;
#X connect 234 0 288 0;
#X connect 235 0 236 0;
#X connect 236 0 237 0;
#X connect 237 0 238 0;
#X connect 238 0 283 0;
#X connect 239 0 241 1;
#X connect 240 0 241 0;
#X connect 241 0 242 0;
#X connect 242 0 288 0;
#X connect 243 0 244 0;
#X connect 244 0 245 0;
#X connect 245 0 246 0;
#X connect 246 0 284 0;
#X connect 247 0 249 1;
#X connect 248 0 249 0;
#X connect 249 0 250 0;
#X connect 250 0 288 0;
#X connect 251 0 252 0;
#X connect 252 0 253 0;
#X connect 253 0 254 0;
#X connect 254 0 285 0;
#X connect 255 0 257 1;
#X connect 256 0 257 0;
#X connect 257 0 258 0;
#X connect 258 0 288 0;
#X connect 259 0 260 0;
#X connect 260 0 261 0;
#X connect 261 0 262 0;
#X connect 262 0 322 0;
#X connect 263 0 265 1;
#X connect 264 0 265 0;
#X connect 265 0 266 0;
#X connect 266 0 288 0;
#X connect 267 0 268 0;
#X connect 268 0 269 0;
#X connect 269 0 270 0;
#X connect 270 0 286 0;
#X connect 271 0 273 1;
#X connect 272 0 273 0;
#X connect 273 0 274 0;
#X connect 274 0 288 0;
#X connect 275 0 223 0;
#X connect 276 0 232 0;
#X connect 277 0 240 0;
#X connect 278 0 248 0;
#X connect 279 0 256 0;
#X connect 280 0 264 0;
#X connect 281 0 272 0;
#X connect 282 0 213 0;
#X connect 283 0 239 0;
#X connect 284 0 247 0;
#X connect 285 0 255 0;
#X connect 286 0 271 0;
#X connect 289 0 290 0;
#X connect 290 0 295 0;
#X connect 291 0 292 0;
#X connect 292 0 294 0;
#X connect 292 0 294 1;
#X connect 293 0 307 0;
#X connect 295 0 291 0;
#X connect 296 0 306 0;
#X connect 297 0 298 0;
#X connect 298 0 299 0;
#X connect 298 0 299 1;
#X connect 300 0 305 0;
#X connect 301 0 302 0;
#X connect 302 0 303 0;
#X connect 302 0 303 1;
#X connect 304 0 300 0;
#X connect 305 0 301 0;
#X connect 306 0 297 0;
#X connect 307 0 292 1;
#X connect 308 0 309 0;
#X connect 309 0 302 1;
#X connect 310 0 311 0;
#X connect 311 0 298 1;
#X connect 312 0 296 0;
#X connect 313 0 141 0;
#X connect 314 0 150 0;
#X connect 315 0 158 0;
#X connect 316 0 166 0;
#X connect 317 0 174 0;
#X connect 318 0 182 0;
#X connect 319 0 190 0;
#X connect 320 0 198 0;
#X connect 321 0 231 0;
#X connect 322 0 263 0;
#X connect 323 0 16 0;
#X connect 326 0 26 0;
#X connect 327 0 326 0;
#X connect 328 0 327 1;
