#N canvas 32 32 1920 1026 12;
#X floatatom 339 55 5 0 0 0 - - - 0;
#X obj 307 49 tgl 25 0 empty empty empty 0 -10 0 12 #ffc7c6 #000000 #000000 0 1;
#X obj 307 84 metro;
#X obj 307 111 bng 19 250 50 0 empty empty empty 0 -10 0 12 #fcfcfc #000000 #000000;
#X obj 307 164 int 1;
#X floatatom 307 197 5 0 0 0 - - - 0;
#X obj 364 190 + 1;
#X obj 192 84 loadbang;
#X obj 263 84 sel 0;
#X obj 263 111 bng 19 250 50 0 empty empty empty 0 -10 0 12 #feffc6 #000000 #000000;
#X msg 263 138 -1;
#X text 201 114 reset;
#X obj 307 227 s Clock;
#X text 370 105 Clock;
#X msg 27 47 60000;
#X obj 27 17 loadbang;
#X obj 94 17 loadbang;
#X msg 94 47 90;
#X floatatom 94 76 5 0 0 0 - - - 0;
#X floatatom 76 180 5 0 0 0 - - - 0;
#X obj 76 111 bng 19 250 50 0 empty empty empty 0 -10 0 12 #fcfcfc #000000 #000000;
#X obj 76 151 /;
#X text 134 78 bpm;
#X obj 76 211 s 4th_time;
#X obj 339 17 r 4th_time;
#X text 154 316 Clock Multiplication;
#X obj 62 407 r ON;
#X obj 126 407 r 4th_time;
#X obj 126 441 * 4;
#X floatatom 126 475 5 0 0 0 - - - 0;
#X obj 142 508 s whole_time;
#X obj 94 508 metro;
#X obj 94 542 bng 19 250 50 0 empty empty empty 0 -10 0 12 #fcfcfc #000000 #000000;
#X obj 94 576 s whole_note;
#X obj 232 407 r ON;
#X obj 296 407 r 4th_time;
#X floatatom 296 475 5 0 0 0 - - - 0;
#X obj 312 508 s whole_time;
#X obj 264 508 metro;
#X obj 264 542 bng 19 250 50 0 empty empty empty 0 -10 0 12 #fcfcfc #000000 #000000;
#X obj 296 441 * 1;
#X obj 264 576 s 4th_note;
#X obj 529 144 bng 19 250 50 0 empty empty empty 0 -10 0 12 #fcfcfc #000000 #000000;
#X obj 529 168 s ON;
#X obj 402 407 r ON;
#X obj 466 407 r 4th_time;
#X floatatom 466 475 5 0 0 0 - - - 0;
#X obj 482 508 s whole_time;
#X obj 434 508 metro;
#X obj 434 542 bng 19 250 50 0 empty empty empty 0 -10 0 12 #fcfcfc #000000 #000000;
#X obj 466 441 / 2;
#X obj 434 576 s 8th_note;
#X connect 0 0 2 1;
#X connect 1 0 2 0;
#X connect 1 0 8 0;
#X connect 2 0 3 0;
#X connect 3 0 4 0;
#X connect 4 0 5 0;
#X connect 4 0 6 0;
#X connect 5 0 12 0;
#X connect 6 0 4 1;
#X connect 7 0 9 0;
#X connect 8 0 9 0;
#X connect 9 0 10 0;
#X connect 10 0 4 0;
#X connect 14 0 21 0;
#X connect 15 0 14 0;
#X connect 16 0 17 0;
#X connect 17 0 18 0;
#X connect 18 0 20 0;
#X connect 18 0 21 1;
#X connect 19 0 23 0;
#X connect 20 0 21 0;
#X connect 21 0 19 0;
#X connect 24 0 0 0;
#X connect 26 0 31 0;
#X connect 27 0 28 0;
#X connect 28 0 29 0;
#X connect 29 0 30 0;
#X connect 29 0 31 1;
#X connect 31 0 32 0;
#X connect 32 0 33 0;
#X connect 34 0 38 0;
#X connect 35 0 40 0;
#X connect 36 0 37 0;
#X connect 36 0 38 1;
#X connect 38 0 39 0;
#X connect 39 0 41 0;
#X connect 40 0 36 0;
#X connect 42 0 43 0;
#X connect 44 0 48 0;
#X connect 45 0 50 0;
#X connect 46 0 47 0;
#X connect 46 0 48 1;
#X connect 48 0 49 0;
#X connect 49 0 51 0;
#X connect 50 0 46 0;
