#N canvas 32 32 1920 1026 12;
#X obj 16 160 osc~ 0.2;
#X obj 65 231 snapshot~;
#X obj 112 44 loadbang;
#X obj 112 101 tgl 19 0 empty empty empty 0 -10 0 12 #fcfcfc #000000 #000000 0 1;
#X obj 112 160 metro 10;
#X floatatom 66 274 5 0 0 0 - - - 0;
#X obj 125 268 vsl 19 162 -1 1 0 0 empty empty empty 0 -9 0 12 #fcfcfc #000000 #000000 0 1;
#X obj 465 109 phasor~ 440;
#X obj 466 167 *~ 0.5;
#X obj 467 297 vcf~;
#X obj 575 150 +~ 2;
#X obj 574 188 *~ 1000;
#X obj 567 232 loadbang;
#X msg 567 259 5;
#X obj 460 356 dac~;
#X text 296 284 vcf~ puede recibir una señal como valor de cutoff además de un valor numérico;
#X obj 720 150 tgl 19 0 empty empty empty 0 -10 0 12 #fcfcfc #000000 #000000 0 1;
#X obj 720 115 loadbang;
#X obj 720 180 metro 10;
#X obj 720 243 snapshot~;
#X floatatom 726 275 5 0 0 0 - - - 0;
#X obj 688 286 vsl 19 162 0 4000 0 0 empty empty empty 0 -9 0 12 #fcfcfc #000000 #000000 0 1;
#X obj 574 107 osc~ 0.2;
#X connect 0 0 1 0;
#X connect 1 0 5 0;
#X connect 1 0 6 0;
#X connect 2 0 3 0;
#X connect 3 0 4 0;
#X connect 4 0 1 0;
#X connect 7 0 8 0;
#X connect 8 0 9 0;
#X connect 9 0 14 0;
#X connect 9 0 14 1;
#X connect 10 0 11 0;
#X connect 11 0 9 1;
#X connect 11 0 19 0;
#X connect 12 0 13 0;
#X connect 13 0 9 2;
#X connect 16 0 18 0;
#X connect 17 0 16 0;
#X connect 18 0 19 0;
#X connect 19 0 20 0;
#X connect 19 0 21 0;
#X connect 22 0 10 0;
