#N canvas 25 126 1920 1026 10;
#X obj 206 87 noise~;
#X obj 206 153 bp~;
#X floatatom 271 86 5 0 0 0 - - - 0;
#X obj 255 153 bp~;
#X obj 269 131 * 2;
#X obj 305 153 bp~;
#X obj 319 131 * 3;
#X obj 357 156 bp~;
#X obj 371 133 * 4;
#X obj 206 356 dac~;
#X floatatom 328 86 5 0 0 0 - - - 0;
#X obj 411 155 bp~;
#X obj 425 133 * 5;
#X obj 206 254 *~;
#X floatatom 221 230 5 0 0 0 - - - 0;
#X obj 256 254 *~;
#X floatatom 271 230 5 0 0 0 - - - 0;
#X obj 306 255 *~;
#X floatatom 321 231 5 0 0 0 - - - 0;
#X obj 358 254 *~;
#X floatatom 373 230 5 0 0 0 - - - 0;
#X obj 411 254 *~;
#X floatatom 426 230 5 0 0 0 - - - 0;
#X obj 221 179 vsl 15 40 0 1 0 0 empty empty empty 0 -9 0 10 #fcfcfc #000000 #000000 0 1;
#X obj 271 180 vsl 15 40 0 1 0 0 empty empty empty 0 -9 0 10 #fcfcfc #000000 #000000 0 1;
#X obj 321 180 vsl 15 40 0 1 0 0 empty empty empty 0 -9 0 10 #fcfcfc #000000 #000000 0 1;
#X obj 373 180 vsl 15 40 0 1 0 0 empty empty empty 0 -9 0 10 #fcfcfc #000000 #000000 0 1;
#X obj 426 180 vsl 15 40 0 1 0 0 empty empty empty 0 -9 0 10 #fcfcfc #000000 #000000 0 1;
#X obj 250 300 hsl 40 15 0 1 0 0 empty empty empty -2 -8 0 10 #fcfcfc #000000 #000000 0 1;
#X obj 206 307 *~;
#X obj 152 155 bp~;
#X obj 153 256 *~;
#X floatatom 168 232 5 0 0 0 - - - 0;
#X obj 168 182 vsl 15 40 0 1 0 0 empty empty empty 0 -9 0 10 #fcfcfc #000000 #000000 0 1;
#X obj 166 133 * 0.5;
#X obj 550 80 noise~;
#X obj 550 146 bp~;
#X floatatom 615 79 5 0 0 0 - - - 0;
#X obj 599 146 bp~;
#X obj 649 146 bp~;
#X obj 701 149 bp~;
#X obj 550 349 dac~;
#X floatatom 672 79 5 0 0 0 - - - 0;
#X obj 550 247 *~;
#X floatatom 565 223 5 0 0 0 - - - 0;
#X obj 600 247 *~;
#X floatatom 615 223 5 0 0 0 - - - 0;
#X obj 650 248 *~;
#X floatatom 665 224 5 0 0 0 - - - 0;
#X obj 702 247 *~;
#X floatatom 717 223 5 0 0 0 - - - 0;
#X obj 565 172 vsl 15 40 0 1 0 0 empty empty empty 0 -9 0 10 #fcfcfc #000000 #000000 0 1;
#X obj 615 173 vsl 15 40 0 1 0 0 empty empty empty 0 -9 0 10 #fcfcfc #000000 #000000 0 1;
#X obj 665 173 vsl 15 40 0 1 0 0 empty empty empty 0 -9 0 10 #fcfcfc #000000 #000000 0 1;
#X obj 717 173 vsl 15 40 0 1 0 0 empty empty empty 0 -9 0 10 #fcfcfc #000000 #000000 0 1;
#X obj 594 293 hsl 40 15 0 1 0 0 empty empty empty -2 -8 0 10 #fcfcfc #000000 #000000 0 1;
#X obj 550 300 *~;
#X obj 613 124 * 3;
#X obj 663 124 * 5;
#X obj 715 126 * 7;
#X obj 1095 193 tgl 19 0 empty empty empty 0 -10 0 12 #fcfcfc #000000 #000000 0 1;
#X obj 1095 158 loadbang;
#X obj 1095 223 metro 10;
#X obj 1095 286 snapshot~;
#X floatatom 1101 318 5 0 0 0 - - - 0;
#X obj 1063 329 vsl 19 162 -2 2 0 0 empty empty empty 0 -9 0 12 #fcfcfc #000000 #000000 0 1;
#X obj 942 209 noise~;
#X obj 942 457 dac~;
#X obj 942 427 *~;
#X floatatom 957 403 5 0 0 0 - - - 0;
#X obj 957 352 vsl 15 40 0 1 0 0 empty empty empty 0 -9 0 10 #fcfcfc #000000 #000000 0 1;
#X obj 942 314 vcf~;
#X obj 995 142 noise~;
#X obj 995 239 *~;
#X floatatom 1029 217 5 0 0 0 - - - 0;
#X obj 995 208 vcf~;
#X floatatom 952 234 5 0 0 0 - - - 0;
#X floatatom 963 292 5 0 0 0 - - - 0;
#X obj 952 269 +~;
#X floatatom 1006 165 5 0 0 0 - - - 0;
#X floatatom 1016 187 5 0 0 0 - - - 0;
#X floatatom 903 233 5 0 0 0 - - - 0;
#X obj 903 313 osc~;
#X obj 903 270 +~;
#X connect 0 0 1 0;
#X connect 0 0 3 0;
#X connect 0 0 5 0;
#X connect 0 0 7 0;
#X connect 0 0 11 0;
#X connect 0 0 30 0;
#X connect 1 0 13 0;
#X connect 2 0 1 1;
#X connect 2 0 4 0;
#X connect 2 0 6 0;
#X connect 2 0 8 0;
#X connect 2 0 12 0;
#X connect 2 0 34 0;
#X connect 3 0 15 0;
#X connect 4 0 3 1;
#X connect 5 0 17 0;
#X connect 6 0 5 1;
#X connect 7 0 19 0;
#X connect 8 0 7 1;
#X connect 10 0 1 2;
#X connect 10 0 3 2;
#X connect 10 0 5 2;
#X connect 10 0 7 2;
#X connect 10 0 11 2;
#X connect 10 0 30 2;
#X connect 11 0 21 0;
#X connect 12 0 11 1;
#X connect 13 0 29 0;
#X connect 14 0 13 1;
#X connect 15 0 29 0;
#X connect 16 0 15 1;
#X connect 17 0 29 0;
#X connect 18 0 17 1;
#X connect 19 0 29 0;
#X connect 20 0 19 1;
#X connect 21 0 29 0;
#X connect 22 0 21 1;
#X connect 23 0 14 0;
#X connect 24 0 16 0;
#X connect 25 0 18 0;
#X connect 26 0 20 0;
#X connect 27 0 22 0;
#X connect 28 0 29 1;
#X connect 29 0 9 0;
#X connect 29 0 9 1;
#X connect 30 0 31 0;
#X connect 31 0 29 0;
#X connect 32 0 31 1;
#X connect 33 0 32 0;
#X connect 34 0 30 1;
#X connect 35 0 36 0;
#X connect 35 0 38 0;
#X connect 35 0 39 0;
#X connect 35 0 40 0;
#X connect 36 0 43 0;
#X connect 37 0 36 1;
#X connect 37 0 57 0;
#X connect 37 0 58 0;
#X connect 37 0 59 0;
#X connect 38 0 45 0;
#X connect 39 0 47 0;
#X connect 40 0 49 0;
#X connect 42 0 36 2;
#X connect 42 0 38 2;
#X connect 42 0 39 2;
#X connect 42 0 40 2;
#X connect 43 0 56 0;
#X connect 44 0 43 1;
#X connect 45 0 56 0;
#X connect 46 0 45 1;
#X connect 47 0 56 0;
#X connect 48 0 47 1;
#X connect 49 0 56 0;
#X connect 50 0 49 1;
#X connect 51 0 44 0;
#X connect 52 0 46 0;
#X connect 53 0 48 0;
#X connect 54 0 50 0;
#X connect 55 0 56 1;
#X connect 56 0 41 0;
#X connect 56 0 41 1;
#X connect 57 0 38 1;
#X connect 58 0 39 1;
#X connect 59 0 40 1;
#X connect 60 0 62 0;
#X connect 61 0 60 0;
#X connect 62 0 63 0;
#X connect 63 0 64 0;
#X connect 63 0 65 0;
#X connect 66 0 71 0;
#X connect 68 0 67 0;
#X connect 68 0 67 1;
#X connect 69 0 68 1;
#X connect 70 0 69 0;
#X connect 71 0 68 0;
#X connect 72 0 75 0;
#X connect 73 0 78 1;
#X connect 73 0 63 0;
#X connect 73 0 83 1;
#X connect 74 0 73 1;
#X connect 75 0 73 0;
#X connect 76 0 78 0;
#X connect 77 0 71 2;
#X connect 78 0 71 1;
#X connect 79 0 75 1;
#X connect 80 0 75 2;
#X connect 81 0 83 0;
#X connect 82 0 68 0;
#X connect 83 0 82 0;
