#N canvas 0 0 1920 1026 12;
#X floatatom 356 71 5 0 0 0 - - - 0;
#X obj 324 65 tgl 25 0 empty empty empty 0 -10 0 12 #ffc7c6 #000000 #000000 0 1;
#X obj 324 100 metro;
#X obj 324 127 bng 19 250 50 0 empty empty empty 0 -10 0 12 #fcfcfc #000000 #000000;
#X obj 324 180 int 1;
#X floatatom 324 213 5 0 0 0 - - - 0;
#X obj 381 206 + 1;
#X obj 209 100 loadbang;
#X obj 280 100 sel 0;
#X obj 280 127 bng 19 250 50 0 empty empty empty 0 -10 0 12 #feffc6 #000000 #000000;
#X msg 280 154 -1;
#X text 218 130 reset;
#X obj 18 543 spigot;
#X obj 18 516 bng 19 250 50 0 empty empty empty 0 -10 0 12 #fcfcfc #000000 #000000;
#X obj 40 510 tgl 25 0 empty empty empty 0 -10 0 12 #dfdfdf #000000 #000000 0 1;
#X obj 18 576 bng 19 250 50 0 empty empty empty 0 -10 0 12 #fcfcfc #000000 #000000;
#X obj 75 542 spigot;
#X obj 75 515 bng 19 250 50 0 empty empty empty 0 -10 0 12 #fcfcfc #000000 #000000;
#X obj 97 510 tgl 25 0 empty empty empty 0 -10 0 12 #ffc7c6 #000000 #000000 0 1;
#X obj 75 575 bng 19 250 50 0 empty empty empty 0 -10 0 12 #fcfcfc #000000 #000000;
#X obj 132 543 spigot;
#X obj 132 516 bng 19 250 50 0 empty empty empty 0 -10 0 12 #fcfcfc #000000 #000000;
#X obj 155 510 tgl 25 0 empty empty empty 0 -10 0 12 #ffe3c6 #000000 #000000 0 1;
#X obj 132 576 bng 19 250 50 0 empty empty empty 0 -10 0 12 #fcfcfc #000000 #000000;
#X obj 189 542 spigot;
#X obj 189 515 bng 19 250 50 0 empty empty empty 0 -10 0 12 #fcfcfc #000000 #000000;
#X obj 211 509 tgl 25 0 empty empty empty 0 -10 0 12 #feffc6 #000000 #000000 0 1;
#X obj 189 575 bng 19 250 50 0 empty empty empty 0 -10 0 12 #fcfcfc #000000 #000000;
#X obj 248 543 spigot;
#X obj 248 516 bng 19 250 50 0 empty empty empty 0 -10 0 12 #fcfcfc #000000 #000000;
#X obj 271 510 tgl 25 0 empty empty empty 0 -10 0 12 #dfdfdf #000000 #000000 0 1;
#X obj 248 576 bng 19 250 50 0 empty empty empty 0 -10 0 12 #fcfcfc #000000 #000000;
#X obj 305 542 spigot;
#X obj 305 515 bng 19 250 50 0 empty empty empty 0 -10 0 12 #fcfcfc #000000 #000000;
#X obj 327 509 tgl 25 0 empty empty empty 0 -10 0 12 #ffc7c6 #000000 #000000 0 1;
#X obj 305 575 bng 19 250 50 0 empty empty empty 0 -10 0 12 #fcfcfc #000000 #000000;
#X obj 362 543 spigot;
#X obj 362 516 bng 19 250 50 0 empty empty empty 0 -10 0 12 #fcfcfc #000000 #000000;
#X obj 384 510 tgl 25 0 empty empty empty 0 -10 0 12 #ffe3c6 #000000 #000000 0 1;
#X obj 362 576 bng 19 250 50 0 empty empty empty 0 -10 0 12 #fcfcfc #000000 #000000;
#X obj 419 542 spigot;
#X obj 419 515 bng 19 250 50 0 empty empty empty 0 -10 0 12 #fcfcfc #000000 #000000;
#X obj 441 509 tgl 25 0 empty empty empty 0 -10 0 12 #feffc6 #000000 #000000 0 1;
#X obj 419 575 bng 19 250 50 0 empty empty empty 0 -10 0 12 #fcfcfc #000000 #000000;
#X obj 18 620 s Kick;
#X obj 770 20 r Kick;
#X obj 770 58 bng 19 250 50 0 empty empty empty 0 -10 0 12 #fcfcfc #000000 #000000;
#X obj 770 131 readsf~;
#X obj 771 164 *~;
#X obj 840 125 vsl 19 50 0 10 0 0 empty empty empty 0 -9 0 12 #fcfcfc #000000 #000000 0 1;
#X obj 770 198 dac~;
#X msg 770 89 open samples/TR-808_Kick_Max_Tone_Max_Decay.wav \, 1;
#X obj 1442 54 bng 19 250 50 0 empty empty empty 0 -10 0 12 #fcfcfc #000000 #000000;
#X obj 1442 127 readsf~;
#X obj 1443 160 *~;
#X obj 1442 194 dac~;
#X obj 1171 54 bng 19 250 50 0 empty empty empty 0 -10 0 12 #fcfcfc #000000 #000000;
#X obj 1171 127 readsf~;
#X obj 1172 160 *~;
#X obj 1171 194 dac~;
#X obj 1171 16 r Snare;
#X msg 1171 85 open samples/Snarderum-03.wav \, 1;
#X obj 324 242 s Clock;
#X msg 1442 85 open samples/hihat.wav \, 1;
#X obj 1442 16 r Hihat;
#X floatatom 840 190 5 0 0 0 - - - 0;
#X obj 1248 123 vsl 19 50 0 2 0 0 empty empty empty 0 -9 0 12 #fcfcfc #000000 #000000 0 1;
#X floatatom 1248 188 5 0 0 0 - - - 0;
#X obj 1510 119 vsl 19 50 0 2 0 0 empty empty empty 0 -9 0 12 #fcfcfc #000000 #000000 0 1;
#X floatatom 1510 184 5 0 2 0 - - - 0;
#X text 416 121 Clock;
#X floatatom 18 431 5 0 0 0 - - - 0;
#X obj 18 399 + 1;
#X floatatom 86 343 5 0 0 0 - - - 0;
#X obj 18 368 %;
#X obj 18 477 sel 1;
#X obj 75 477 sel 2;
#X obj 132 477 sel 3;
#X obj 189 477 sel 4;
#X obj 248 477 sel 5;
#X obj 305 477 sel 6;
#X obj 362 477 sel 7;
#X obj 419 477 sel 8;
#X obj 18 316 r Clock;
#X obj 1648 55 bng 19 250 50 0 empty empty empty 0 -10 0 12 #fcfcfc #000000 #000000;
#X obj 1648 128 readsf~;
#X obj 1649 161 *~;
#X obj 1648 195 dac~;
#X obj 1716 120 vsl 19 50 0 2 0 0 empty empty empty 0 -9 0 12 #fcfcfc #000000 #000000 0 1;
#X floatatom 1716 185 5 0 2 0 - - - 0;
#X obj 1648 17 r Clap;
#X msg 1648 86 open samples/06.wav \, 1;
#X obj 473 543 spigot;
#X obj 473 516 bng 19 250 50 0 empty empty empty 0 -10 0 12 #fcfcfc #000000 #000000;
#X obj 495 510 tgl 25 0 empty empty empty 0 -10 0 12 #dfdfdf #000000 #000000 0 1;
#X obj 473 576 bng 19 250 50 0 empty empty empty 0 -10 0 12 #fcfcfc #000000 #000000;
#X obj 530 542 spigot;
#X obj 530 515 bng 19 250 50 0 empty empty empty 0 -10 0 12 #fcfcfc #000000 #000000;
#X obj 552 510 tgl 25 0 empty empty empty 0 -10 0 12 #ffc7c6 #000000 #000000 0 1;
#X obj 530 575 bng 19 250 50 0 empty empty empty 0 -10 0 12 #fcfcfc #000000 #000000;
#X obj 587 543 spigot;
#X obj 587 516 bng 19 250 50 0 empty empty empty 0 -10 0 12 #fcfcfc #000000 #000000;
#X obj 610 510 tgl 25 0 empty empty empty 0 -10 0 12 #ffe3c6 #000000 #000000 0 1;
#X obj 587 576 bng 19 250 50 0 empty empty empty 0 -10 0 12 #fcfcfc #000000 #000000;
#X obj 644 542 spigot;
#X obj 644 515 bng 19 250 50 0 empty empty empty 0 -10 0 12 #fcfcfc #000000 #000000;
#X obj 666 509 tgl 25 0 empty empty empty 0 -10 0 12 #feffc6 #000000 #000000 0 1;
#X obj 644 575 bng 19 250 50 0 empty empty empty 0 -10 0 12 #fcfcfc #000000 #000000;
#X obj 703 543 spigot;
#X obj 703 516 bng 19 250 50 0 empty empty empty 0 -10 0 12 #fcfcfc #000000 #000000;
#X obj 726 510 tgl 25 0 empty empty empty 0 -10 0 12 #dfdfdf #000000 #000000 0 1;
#X obj 703 576 bng 19 250 50 0 empty empty empty 0 -10 0 12 #fcfcfc #000000 #000000;
#X obj 760 542 spigot;
#X obj 760 515 bng 19 250 50 0 empty empty empty 0 -10 0 12 #fcfcfc #000000 #000000;
#X obj 782 509 tgl 25 0 empty empty empty 0 -10 0 12 #ffc7c6 #000000 #000000 0 1;
#X obj 760 575 bng 19 250 50 0 empty empty empty 0 -10 0 12 #fcfcfc #000000 #000000;
#X obj 817 543 spigot;
#X obj 817 516 bng 19 250 50 0 empty empty empty 0 -10 0 12 #fcfcfc #000000 #000000;
#X obj 839 510 tgl 25 0 empty empty empty 0 -10 0 12 #ffe3c6 #000000 #000000 0 1;
#X obj 817 576 bng 19 250 50 0 empty empty empty 0 -10 0 12 #fcfcfc #000000 #000000;
#X obj 874 542 spigot;
#X obj 874 515 bng 19 250 50 0 empty empty empty 0 -10 0 12 #fcfcfc #000000 #000000;
#X obj 896 509 tgl 25 0 empty empty empty 0 -10 0 12 #feffc6 #000000 #000000 0 1;
#X obj 874 575 bng 19 250 50 0 empty empty empty 0 -10 0 12 #fcfcfc #000000 #000000;
#X obj 473 477 sel 9;
#X obj 530 477 sel 10;
#X obj 587 477 sel 11;
#X obj 644 477 sel 12;
#X obj 703 477 sel 13;
#X obj 760 477 sel 14;
#X obj 817 477 sel 15;
#X obj 874 477 sel 16;
#X obj 983 542 spigot;
#X obj 983 515 bng 19 250 50 0 empty empty empty 0 -10 0 12 #fcfcfc #000000 #000000;
#X obj 1005 509 tgl 25 0 empty empty empty 0 -10 0 12 #dfdfdf #000000 #000000 0 1;
#X obj 983 575 bng 19 250 50 0 empty empty empty 0 -10 0 12 #fcfcfc #000000 #000000;
#X obj 1040 541 spigot;
#X obj 1040 514 bng 19 250 50 0 empty empty empty 0 -10 0 12 #fcfcfc #000000 #000000;
#X obj 1062 509 tgl 25 0 empty empty empty 0 -10 0 12 #ffc7c6 #000000 #000000 0 1;
#X obj 1040 574 bng 19 250 50 0 empty empty empty 0 -10 0 12 #fcfcfc #000000 #000000;
#X obj 1097 542 spigot;
#X obj 1097 515 bng 19 250 50 0 empty empty empty 0 -10 0 12 #fcfcfc #000000 #000000;
#X obj 1120 509 tgl 25 0 empty empty empty 0 -10 0 12 #ffe3c6 #000000 #000000 0 1;
#X obj 1097 575 bng 19 250 50 0 empty empty empty 0 -10 0 12 #fcfcfc #000000 #000000;
#X obj 1154 541 spigot;
#X obj 1154 514 bng 19 250 50 0 empty empty empty 0 -10 0 12 #fcfcfc #000000 #000000;
#X obj 1176 508 tgl 25 0 empty empty empty 0 -10 0 12 #feffc6 #000000 #000000 0 1;
#X obj 1154 574 bng 19 250 50 0 empty empty empty 0 -10 0 12 #fcfcfc #000000 #000000;
#X obj 1213 542 spigot;
#X obj 1213 515 bng 19 250 50 0 empty empty empty 0 -10 0 12 #fcfcfc #000000 #000000;
#X obj 1236 509 tgl 25 0 empty empty empty 0 -10 0 12 #dfdfdf #000000 #000000 0 1;
#X obj 1213 575 bng 19 250 50 0 empty empty empty 0 -10 0 12 #fcfcfc #000000 #000000;
#X obj 1270 541 spigot;
#X obj 1270 514 bng 19 250 50 0 empty empty empty 0 -10 0 12 #fcfcfc #000000 #000000;
#X obj 1292 508 tgl 25 0 empty empty empty 0 -10 0 12 #ffc7c6 #000000 #000000 0 1;
#X obj 1270 574 bng 19 250 50 0 empty empty empty 0 -10 0 12 #fcfcfc #000000 #000000;
#X obj 1327 542 spigot;
#X obj 1327 515 bng 19 250 50 0 empty empty empty 0 -10 0 12 #fcfcfc #000000 #000000;
#X obj 1349 509 tgl 25 0 empty empty empty 0 -10 0 12 #ffe3c6 #000000 #000000 0 1;
#X obj 1327 575 bng 19 250 50 0 empty empty empty 0 -10 0 12 #fcfcfc #000000 #000000;
#X obj 1384 541 spigot;
#X obj 1384 514 bng 19 250 50 0 empty empty empty 0 -10 0 12 #fcfcfc #000000 #000000;
#X obj 1406 508 tgl 25 0 empty empty empty 0 -10 0 12 #feffc6 #000000 #000000 0 1;
#X obj 1384 574 bng 19 250 50 0 empty empty empty 0 -10 0 12 #fcfcfc #000000 #000000;
#X floatatom 983 430 5 0 0 0 - - - 0;
#X obj 983 398 + 1;
#X floatatom 1051 342 5 0 0 0 - - - 0;
#X obj 983 367 %;
#X obj 983 476 sel 1;
#X obj 1040 476 sel 2;
#X obj 1097 476 sel 3;
#X obj 1154 476 sel 4;
#X obj 1213 476 sel 5;
#X obj 1270 476 sel 6;
#X obj 1327 476 sel 7;
#X obj 1384 476 sel 8;
#X obj 983 315 r Clock;
#X obj 1438 542 spigot;
#X obj 1438 515 bng 19 250 50 0 empty empty empty 0 -10 0 12 #fcfcfc #000000 #000000;
#X obj 1460 509 tgl 25 0 empty empty empty 0 -10 0 12 #dfdfdf #000000 #000000 0 1;
#X obj 1438 575 bng 19 250 50 0 empty empty empty 0 -10 0 12 #fcfcfc #000000 #000000;
#X obj 1495 541 spigot;
#X obj 1495 514 bng 19 250 50 0 empty empty empty 0 -10 0 12 #fcfcfc #000000 #000000;
#X obj 1517 509 tgl 25 0 empty empty empty 0 -10 0 12 #ffc7c6 #000000 #000000 0 1;
#X obj 1495 574 bng 19 250 50 0 empty empty empty 0 -10 0 12 #fcfcfc #000000 #000000;
#X obj 1552 542 spigot;
#X obj 1552 515 bng 19 250 50 0 empty empty empty 0 -10 0 12 #fcfcfc #000000 #000000;
#X obj 1575 509 tgl 25 0 empty empty empty 0 -10 0 12 #ffe3c6 #000000 #000000 0 1;
#X obj 1552 575 bng 19 250 50 0 empty empty empty 0 -10 0 12 #fcfcfc #000000 #000000;
#X obj 1609 541 spigot;
#X obj 1609 514 bng 19 250 50 0 empty empty empty 0 -10 0 12 #fcfcfc #000000 #000000;
#X obj 1631 508 tgl 25 0 empty empty empty 0 -10 0 12 #feffc6 #000000 #000000 0 1;
#X obj 1609 574 bng 19 250 50 0 empty empty empty 0 -10 0 12 #fcfcfc #000000 #000000;
#X obj 1668 542 spigot;
#X obj 1668 515 bng 19 250 50 0 empty empty empty 0 -10 0 12 #fcfcfc #000000 #000000;
#X obj 1691 509 tgl 25 0 empty empty empty 0 -10 0 12 #dfdfdf #000000 #000000 0 1;
#X obj 1668 575 bng 19 250 50 0 empty empty empty 0 -10 0 12 #fcfcfc #000000 #000000;
#X obj 1725 541 spigot;
#X obj 1725 514 bng 19 250 50 0 empty empty empty 0 -10 0 12 #fcfcfc #000000 #000000;
#X obj 1747 508 tgl 25 0 empty empty empty 0 -10 0 12 #ffc7c6 #000000 #000000 0 1;
#X obj 1725 574 bng 19 250 50 0 empty empty empty 0 -10 0 12 #fcfcfc #000000 #000000;
#X obj 1782 542 spigot;
#X obj 1782 515 bng 19 250 50 0 empty empty empty 0 -10 0 12 #fcfcfc #000000 #000000;
#X obj 1804 509 tgl 25 0 empty empty empty 0 -10 0 12 #ffe3c6 #000000 #000000 0 1;
#X obj 1782 575 bng 19 250 50 0 empty empty empty 0 -10 0 12 #fcfcfc #000000 #000000;
#X obj 1839 541 spigot;
#X obj 1839 514 bng 19 250 50 0 empty empty empty 0 -10 0 12 #fcfcfc #000000 #000000;
#X obj 1861 508 tgl 25 0 empty empty empty 0 -10 0 12 #feffc6 #000000 #000000 0 1;
#X obj 1839 574 bng 19 250 50 0 empty empty empty 0 -10 0 12 #fcfcfc #000000 #000000;
#X obj 1438 476 sel 9;
#X obj 1495 476 sel 10;
#X obj 1552 476 sel 11;
#X obj 1609 476 sel 12;
#X obj 1668 476 sel 13;
#X obj 1725 476 sel 14;
#X obj 1782 476 sel 15;
#X obj 1839 476 sel 16;
#X obj 18 903 spigot;
#X obj 18 876 bng 19 250 50 0 empty empty empty 0 -10 0 12 #fcfcfc #000000 #000000;
#X obj 40 870 tgl 25 0 empty empty empty 0 -10 0 12 #dfdfdf #000000 #000000 0 1;
#X obj 18 936 bng 19 250 50 0 empty empty empty 0 -10 0 12 #fcfcfc #000000 #000000;
#X obj 75 902 spigot;
#X obj 75 875 bng 19 250 50 0 empty empty empty 0 -10 0 12 #fcfcfc #000000 #000000;
#X obj 97 870 tgl 25 0 empty empty empty 0 -10 0 12 #ffc7c6 #000000 #000000 0 1;
#X obj 75 935 bng 19 250 50 0 empty empty empty 0 -10 0 12 #fcfcfc #000000 #000000;
#X obj 132 903 spigot;
#X obj 132 876 bng 19 250 50 0 empty empty empty 0 -10 0 12 #fcfcfc #000000 #000000;
#X obj 155 870 tgl 25 0 empty empty empty 0 -10 0 12 #ffe3c6 #000000 #000000 0 1;
#X obj 132 936 bng 19 250 50 0 empty empty empty 0 -10 0 12 #fcfcfc #000000 #000000;
#X obj 189 902 spigot;
#X obj 189 875 bng 19 250 50 0 empty empty empty 0 -10 0 12 #fcfcfc #000000 #000000;
#X obj 211 869 tgl 25 0 empty empty empty 0 -10 0 12 #feffc6 #000000 #000000 0 1;
#X obj 189 935 bng 19 250 50 0 empty empty empty 0 -10 0 12 #fcfcfc #000000 #000000;
#X obj 248 903 spigot;
#X obj 248 876 bng 19 250 50 0 empty empty empty 0 -10 0 12 #fcfcfc #000000 #000000;
#X obj 271 870 tgl 25 0 empty empty empty 0 -10 0 12 #dfdfdf #000000 #000000 0 1;
#X obj 248 936 bng 19 250 50 0 empty empty empty 0 -10 0 12 #fcfcfc #000000 #000000;
#X obj 305 902 spigot;
#X obj 305 875 bng 19 250 50 0 empty empty empty 0 -10 0 12 #fcfcfc #000000 #000000;
#X obj 327 869 tgl 25 0 empty empty empty 0 -10 0 12 #ffc7c6 #000000 #000000 0 1;
#X obj 305 935 bng 19 250 50 0 empty empty empty 0 -10 0 12 #fcfcfc #000000 #000000;
#X obj 362 903 spigot;
#X obj 362 876 bng 19 250 50 0 empty empty empty 0 -10 0 12 #fcfcfc #000000 #000000;
#X obj 384 870 tgl 25 0 empty empty empty 0 -10 0 12 #ffe3c6 #000000 #000000 0 1;
#X obj 362 936 bng 19 250 50 0 empty empty empty 0 -10 0 12 #fcfcfc #000000 #000000;
#X obj 419 902 spigot;
#X obj 419 875 bng 19 250 50 0 empty empty empty 0 -10 0 12 #fcfcfc #000000 #000000;
#X obj 441 869 tgl 25 0 empty empty empty 0 -10 0 12 #feffc6 #000000 #000000 0 1;
#X obj 419 935 bng 19 250 50 0 empty empty empty 0 -10 0 12 #fcfcfc #000000 #000000;
#X floatatom 18 791 5 0 0 0 - - - 0;
#X obj 18 759 + 1;
#X floatatom 86 703 5 0 0 0 - - - 0;
#X obj 18 728 %;
#X obj 18 837 sel 1;
#X obj 75 837 sel 2;
#X obj 132 837 sel 3;
#X obj 189 837 sel 4;
#X obj 248 837 sel 5;
#X obj 305 837 sel 6;
#X obj 362 837 sel 7;
#X obj 419 837 sel 8;
#X obj 18 676 r Clock;
#X obj 473 903 spigot;
#X obj 473 876 bng 19 250 50 0 empty empty empty 0 -10 0 12 #fcfcfc #000000 #000000;
#X obj 495 870 tgl 25 0 empty empty empty 0 -10 0 12 #dfdfdf #000000 #000000 0 1;
#X obj 473 936 bng 19 250 50 0 empty empty empty 0 -10 0 12 #fcfcfc #000000 #000000;
#X obj 530 902 spigot;
#X obj 530 875 bng 19 250 50 0 empty empty empty 0 -10 0 12 #fcfcfc #000000 #000000;
#X obj 552 870 tgl 25 0 empty empty empty 0 -10 0 12 #ffc7c6 #000000 #000000 0 1;
#X obj 530 935 bng 19 250 50 0 empty empty empty 0 -10 0 12 #fcfcfc #000000 #000000;
#X obj 587 903 spigot;
#X obj 587 876 bng 19 250 50 0 empty empty empty 0 -10 0 12 #fcfcfc #000000 #000000;
#X obj 610 870 tgl 25 0 empty empty empty 0 -10 0 12 #ffe3c6 #000000 #000000 0 1;
#X obj 587 936 bng 19 250 50 0 empty empty empty 0 -10 0 12 #fcfcfc #000000 #000000;
#X obj 644 902 spigot;
#X obj 644 875 bng 19 250 50 0 empty empty empty 0 -10 0 12 #fcfcfc #000000 #000000;
#X obj 666 869 tgl 25 0 empty empty empty 0 -10 0 12 #feffc6 #000000 #000000 0 1;
#X obj 644 935 bng 19 250 50 0 empty empty empty 0 -10 0 12 #fcfcfc #000000 #000000;
#X obj 703 903 spigot;
#X obj 703 876 bng 19 250 50 0 empty empty empty 0 -10 0 12 #fcfcfc #000000 #000000;
#X obj 726 870 tgl 25 0 empty empty empty 0 -10 0 12 #dfdfdf #000000 #000000 0 1;
#X obj 703 936 bng 19 250 50 0 empty empty empty 0 -10 0 12 #fcfcfc #000000 #000000;
#X obj 760 902 spigot;
#X obj 760 875 bng 19 250 50 0 empty empty empty 0 -10 0 12 #fcfcfc #000000 #000000;
#X obj 782 869 tgl 25 0 empty empty empty 0 -10 0 12 #ffc7c6 #000000 #000000 0 1;
#X obj 760 935 bng 19 250 50 0 empty empty empty 0 -10 0 12 #fcfcfc #000000 #000000;
#X obj 817 903 spigot;
#X obj 817 876 bng 19 250 50 0 empty empty empty 0 -10 0 12 #fcfcfc #000000 #000000;
#X obj 839 870 tgl 25 0 empty empty empty 0 -10 0 12 #ffe3c6 #000000 #000000 0 1;
#X obj 817 936 bng 19 250 50 0 empty empty empty 0 -10 0 12 #fcfcfc #000000 #000000;
#X obj 874 902 spigot;
#X obj 874 875 bng 19 250 50 0 empty empty empty 0 -10 0 12 #fcfcfc #000000 #000000;
#X obj 896 869 tgl 25 0 empty empty empty 0 -10 0 12 #feffc6 #000000 #000000 0 1;
#X obj 874 935 bng 19 250 50 0 empty empty empty 0 -10 0 12 #fcfcfc #000000 #000000;
#X obj 473 837 sel 9;
#X obj 530 837 sel 10;
#X obj 587 837 sel 11;
#X obj 644 837 sel 12;
#X obj 703 837 sel 13;
#X obj 760 837 sel 14;
#X obj 817 837 sel 15;
#X obj 874 837 sel 16;
#X obj 983 902 spigot;
#X obj 983 875 bng 19 250 50 0 empty empty empty 0 -10 0 12 #fcfcfc #000000 #000000;
#X obj 1005 869 tgl 25 0 empty empty empty 0 -10 0 12 #dfdfdf #000000 #000000 0 1;
#X obj 983 935 bng 19 250 50 0 empty empty empty 0 -10 0 12 #fcfcfc #000000 #000000;
#X obj 1040 901 spigot;
#X obj 1040 874 bng 19 250 50 0 empty empty empty 0 -10 0 12 #fcfcfc #000000 #000000;
#X obj 1062 869 tgl 25 0 empty empty empty 0 -10 0 12 #ffc7c6 #000000 #000000 0 1;
#X obj 1040 934 bng 19 250 50 0 empty empty empty 0 -10 0 12 #fcfcfc #000000 #000000;
#X obj 1097 902 spigot;
#X obj 1097 875 bng 19 250 50 0 empty empty empty 0 -10 0 12 #fcfcfc #000000 #000000;
#X obj 1120 869 tgl 25 0 empty empty empty 0 -10 0 12 #ffe3c6 #000000 #000000 0 1;
#X obj 1097 935 bng 19 250 50 0 empty empty empty 0 -10 0 12 #fcfcfc #000000 #000000;
#X obj 1154 901 spigot;
#X obj 1154 874 bng 19 250 50 0 empty empty empty 0 -10 0 12 #fcfcfc #000000 #000000;
#X obj 1176 868 tgl 25 0 empty empty empty 0 -10 0 12 #feffc6 #000000 #000000 0 1;
#X obj 1154 934 bng 19 250 50 0 empty empty empty 0 -10 0 12 #fcfcfc #000000 #000000;
#X obj 1213 902 spigot;
#X obj 1213 875 bng 19 250 50 0 empty empty empty 0 -10 0 12 #fcfcfc #000000 #000000;
#X obj 1236 869 tgl 25 0 empty empty empty 0 -10 0 12 #dfdfdf #000000 #000000 0 1;
#X obj 1213 935 bng 19 250 50 0 empty empty empty 0 -10 0 12 #fcfcfc #000000 #000000;
#X obj 1270 901 spigot;
#X obj 1270 874 bng 19 250 50 0 empty empty empty 0 -10 0 12 #fcfcfc #000000 #000000;
#X obj 1292 868 tgl 25 0 empty empty empty 0 -10 0 12 #ffc7c6 #000000 #000000 0 1;
#X obj 1270 934 bng 19 250 50 0 empty empty empty 0 -10 0 12 #fcfcfc #000000 #000000;
#X obj 1327 902 spigot;
#X obj 1327 875 bng 19 250 50 0 empty empty empty 0 -10 0 12 #fcfcfc #000000 #000000;
#X obj 1349 869 tgl 25 0 empty empty empty 0 -10 0 12 #ffe3c6 #000000 #000000 0 1;
#X obj 1327 935 bng 19 250 50 0 empty empty empty 0 -10 0 12 #fcfcfc #000000 #000000;
#X obj 1384 901 spigot;
#X obj 1384 874 bng 19 250 50 0 empty empty empty 0 -10 0 12 #fcfcfc #000000 #000000;
#X obj 1406 868 tgl 25 0 empty empty empty 0 -10 0 12 #feffc6 #000000 #000000 0 1;
#X obj 1384 934 bng 19 250 50 0 empty empty empty 0 -10 0 12 #fcfcfc #000000 #000000;
#X floatatom 983 790 5 0 0 0 - - - 0;
#X obj 983 758 + 1;
#X floatatom 1051 702 5 0 0 0 - - - 0;
#X obj 983 727 %;
#X obj 983 836 sel 1;
#X obj 1040 836 sel 2;
#X obj 1097 836 sel 3;
#X obj 1154 836 sel 4;
#X obj 1213 836 sel 5;
#X obj 1270 836 sel 6;
#X obj 1327 836 sel 7;
#X obj 1384 836 sel 8;
#X obj 983 675 r Clock;
#X obj 1438 902 spigot;
#X obj 1438 875 bng 19 250 50 0 empty empty empty 0 -10 0 12 #fcfcfc #000000 #000000;
#X obj 1460 869 tgl 25 0 empty empty empty 0 -10 0 12 #dfdfdf #000000 #000000 0 1;
#X obj 1438 935 bng 19 250 50 0 empty empty empty 0 -10 0 12 #fcfcfc #000000 #000000;
#X obj 1495 901 spigot;
#X obj 1495 874 bng 19 250 50 0 empty empty empty 0 -10 0 12 #fcfcfc #000000 #000000;
#X obj 1517 869 tgl 25 0 empty empty empty 0 -10 0 12 #ffc7c6 #000000 #000000 0 1;
#X obj 1495 934 bng 19 250 50 0 empty empty empty 0 -10 0 12 #fcfcfc #000000 #000000;
#X obj 1552 902 spigot;
#X obj 1552 875 bng 19 250 50 0 empty empty empty 0 -10 0 12 #fcfcfc #000000 #000000;
#X obj 1575 869 tgl 25 0 empty empty empty 0 -10 0 12 #ffe3c6 #000000 #000000 0 1;
#X obj 1552 935 bng 19 250 50 0 empty empty empty 0 -10 0 12 #fcfcfc #000000 #000000;
#X obj 1609 901 spigot;
#X obj 1609 874 bng 19 250 50 0 empty empty empty 0 -10 0 12 #fcfcfc #000000 #000000;
#X obj 1631 868 tgl 25 0 empty empty empty 0 -10 0 12 #feffc6 #000000 #000000 0 1;
#X obj 1609 934 bng 19 250 50 0 empty empty empty 0 -10 0 12 #fcfcfc #000000 #000000;
#X obj 1668 902 spigot;
#X obj 1668 875 bng 19 250 50 0 empty empty empty 0 -10 0 12 #fcfcfc #000000 #000000;
#X obj 1691 869 tgl 25 0 empty empty empty 0 -10 0 12 #dfdfdf #000000 #000000 0 1;
#X obj 1668 935 bng 19 250 50 0 empty empty empty 0 -10 0 12 #fcfcfc #000000 #000000;
#X obj 1725 901 spigot;
#X obj 1725 874 bng 19 250 50 0 empty empty empty 0 -10 0 12 #fcfcfc #000000 #000000;
#X obj 1747 868 tgl 25 0 empty empty empty 0 -10 0 12 #ffc7c6 #000000 #000000 0 1;
#X obj 1725 934 bng 19 250 50 0 empty empty empty 0 -10 0 12 #fcfcfc #000000 #000000;
#X obj 1782 902 spigot;
#X obj 1782 875 bng 19 250 50 0 empty empty empty 0 -10 0 12 #fcfcfc #000000 #000000;
#X obj 1804 869 tgl 25 0 empty empty empty 0 -10 0 12 #ffe3c6 #000000 #000000 0 1;
#X obj 1782 935 bng 19 250 50 0 empty empty empty 0 -10 0 12 #fcfcfc #000000 #000000;
#X obj 1839 901 spigot;
#X obj 1839 874 bng 19 250 50 0 empty empty empty 0 -10 0 12 #fcfcfc #000000 #000000;
#X obj 1861 868 tgl 25 0 empty empty empty 0 -10 0 12 #feffc6 #000000 #000000 0 1;
#X obj 1839 934 bng 19 250 50 0 empty empty empty 0 -10 0 12 #fcfcfc #000000 #000000;
#X obj 1438 836 sel 9;
#X obj 1495 836 sel 10;
#X obj 1552 836 sel 11;
#X obj 1609 836 sel 12;
#X obj 1668 836 sel 13;
#X obj 1725 836 sel 14;
#X obj 1782 836 sel 15;
#X obj 1839 836 sel 16;
#X obj 983 619 s Snare;
#X obj 18 980 s Hihat;
#X obj 983 979 s Clap;
#X obj 500 20 loadbang;
#X msg 500 49 16;
#X obj 500 78 s steps_init;
#X obj 86 315 r steps_init;
#X obj 86 676 r steps_init;
#X obj 1051 677 r steps_init;
#X obj 1051 316 r steps_init;
#X msg 68 38 60000;
#X obj 67 3 loadbang;
#X msg 118 38 90;
#X floatatom 118 67 5 0 0 0 - - - 0;
#X obj 100 120 /;
#X obj 100 90 bng 15 250 50 0 empty empty empty 17 7 0 10 #fcfcfc #000000 #000000;
#X floatatom 100 149 5 0 0 0 - - - 0;
#X obj 100 177 s tempo;
#X obj 356 21 r tempo;
#X obj 600 78 s vol_init;
#X msg 600 49 1;
#X obj 882 122 r vol_init;
#X obj 1282 122 r vol_init;
#X obj 1542 122 r vol_init;
#X obj 1752 122 r vol_init;
#X connect 0 0 2 1;
#X connect 1 0 2 0;
#X connect 1 0 8 0;
#X connect 2 0 3 0;
#X connect 3 0 4 0;
#X connect 4 0 5 0;
#X connect 4 0 6 0;
#X connect 5 0 62 0;
#X connect 6 0 4 1;
#X connect 7 0 9 0;
#X connect 8 0 9 0;
#X connect 9 0 10 0;
#X connect 10 0 4 0;
#X connect 12 0 15 0;
#X connect 13 0 12 0;
#X connect 14 0 12 1;
#X connect 15 0 44 0;
#X connect 16 0 19 0;
#X connect 17 0 16 0;
#X connect 18 0 16 1;
#X connect 19 0 44 0;
#X connect 20 0 23 0;
#X connect 21 0 20 0;
#X connect 22 0 20 1;
#X connect 23 0 44 0;
#X connect 24 0 27 0;
#X connect 25 0 24 0;
#X connect 26 0 24 1;
#X connect 27 0 44 0;
#X connect 28 0 31 0;
#X connect 29 0 28 0;
#X connect 30 0 28 1;
#X connect 31 0 44 0;
#X connect 32 0 35 0;
#X connect 33 0 32 0;
#X connect 34 0 32 1;
#X connect 35 0 44 0;
#X connect 36 0 39 0;
#X connect 37 0 36 0;
#X connect 38 0 36 1;
#X connect 39 0 44 0;
#X connect 40 0 43 0;
#X connect 41 0 40 0;
#X connect 42 0 40 1;
#X connect 43 0 44 0;
#X connect 45 0 46 0;
#X connect 46 0 51 0;
#X connect 47 0 48 0;
#X connect 48 0 50 0;
#X connect 48 0 50 1;
#X connect 49 0 65 0;
#X connect 51 0 47 0;
#X connect 52 0 63 0;
#X connect 53 0 54 0;
#X connect 54 0 55 0;
#X connect 54 0 55 1;
#X connect 56 0 61 0;
#X connect 57 0 58 0;
#X connect 58 0 59 0;
#X connect 58 0 59 1;
#X connect 60 0 56 0;
#X connect 61 0 57 0;
#X connect 63 0 53 0;
#X connect 64 0 52 0;
#X connect 65 0 48 1;
#X connect 66 0 67 0;
#X connect 67 0 58 1;
#X connect 68 0 69 0;
#X connect 69 0 54 1;
#X connect 71 0 75 0;
#X connect 71 0 76 0;
#X connect 71 0 77 0;
#X connect 71 0 78 0;
#X connect 71 0 79 0;
#X connect 71 0 80 0;
#X connect 71 0 81 0;
#X connect 71 0 82 0;
#X connect 71 0 124 0;
#X connect 71 0 125 0;
#X connect 71 0 126 0;
#X connect 71 0 127 0;
#X connect 71 0 128 0;
#X connect 71 0 129 0;
#X connect 71 0 130 0;
#X connect 71 0 131 0;
#X connect 72 0 71 0;
#X connect 73 0 74 1;
#X connect 74 0 72 0;
#X connect 75 0 13 0;
#X connect 76 0 17 0;
#X connect 77 0 21 0;
#X connect 78 0 25 0;
#X connect 79 0 29 0;
#X connect 80 0 33 0;
#X connect 81 0 37 0;
#X connect 82 0 41 0;
#X connect 83 0 74 0;
#X connect 84 0 91 0;
#X connect 85 0 86 0;
#X connect 86 0 87 0;
#X connect 86 0 87 1;
#X connect 88 0 89 0;
#X connect 89 0 86 1;
#X connect 90 0 84 0;
#X connect 91 0 85 0;
#X connect 92 0 95 0;
#X connect 93 0 92 0;
#X connect 94 0 92 1;
#X connect 95 0 44 0;
#X connect 96 0 99 0;
#X connect 97 0 96 0;
#X connect 98 0 96 1;
#X connect 99 0 44 0;
#X connect 100 0 103 0;
#X connect 101 0 100 0;
#X connect 102 0 100 1;
#X connect 103 0 44 0;
#X connect 104 0 107 0;
#X connect 105 0 104 0;
#X connect 106 0 104 1;
#X connect 107 0 44 0;
#X connect 108 0 111 0;
#X connect 109 0 108 0;
#X connect 110 0 108 1;
#X connect 111 0 44 0;
#X connect 112 0 115 0;
#X connect 113 0 112 0;
#X connect 114 0 112 1;
#X connect 115 0 44 0;
#X connect 116 0 119 0;
#X connect 117 0 116 0;
#X connect 118 0 116 1;
#X connect 119 0 44 0;
#X connect 120 0 123 0;
#X connect 121 0 120 0;
#X connect 122 0 120 1;
#X connect 123 0 44 0;
#X connect 124 0 93 0;
#X connect 125 0 97 0;
#X connect 126 0 101 0;
#X connect 127 0 105 0;
#X connect 128 0 109 0;
#X connect 129 0 113 0;
#X connect 130 0 117 0;
#X connect 131 0 121 0;
#X connect 132 0 135 0;
#X connect 133 0 132 0;
#X connect 134 0 132 1;
#X connect 135 0 387 0;
#X connect 136 0 139 0;
#X connect 137 0 136 0;
#X connect 138 0 136 1;
#X connect 139 0 387 0;
#X connect 140 0 143 0;
#X connect 141 0 140 0;
#X connect 142 0 140 1;
#X connect 143 0 387 0;
#X connect 144 0 147 0;
#X connect 145 0 144 0;
#X connect 146 0 144 1;
#X connect 147 0 387 0;
#X connect 148 0 151 0;
#X connect 149 0 148 0;
#X connect 150 0 148 1;
#X connect 151 0 387 0;
#X connect 152 0 155 0;
#X connect 153 0 152 0;
#X connect 154 0 152 1;
#X connect 155 0 387 0;
#X connect 156 0 159 0;
#X connect 157 0 156 0;
#X connect 158 0 156 1;
#X connect 159 0 387 0;
#X connect 160 0 163 0;
#X connect 161 0 160 0;
#X connect 162 0 160 1;
#X connect 163 0 387 0;
#X connect 164 0 168 0;
#X connect 164 0 169 0;
#X connect 164 0 170 0;
#X connect 164 0 171 0;
#X connect 164 0 172 0;
#X connect 164 0 173 0;
#X connect 164 0 174 0;
#X connect 164 0 175 0;
#X connect 164 0 209 0;
#X connect 164 0 210 0;
#X connect 164 0 211 0;
#X connect 164 0 212 0;
#X connect 164 0 213 0;
#X connect 164 0 214 0;
#X connect 164 0 215 0;
#X connect 164 0 216 0;
#X connect 165 0 164 0;
#X connect 166 0 167 1;
#X connect 167 0 165 0;
#X connect 168 0 133 0;
#X connect 169 0 137 0;
#X connect 170 0 141 0;
#X connect 171 0 145 0;
#X connect 172 0 149 0;
#X connect 173 0 153 0;
#X connect 174 0 157 0;
#X connect 175 0 161 0;
#X connect 176 0 167 0;
#X connect 177 0 180 0;
#X connect 178 0 177 0;
#X connect 179 0 177 1;
#X connect 180 0 387 0;
#X connect 181 0 184 0;
#X connect 182 0 181 0;
#X connect 183 0 181 1;
#X connect 184 0 387 0;
#X connect 185 0 188 0;
#X connect 186 0 185 0;
#X connect 187 0 185 1;
#X connect 188 0 387 0;
#X connect 189 0 192 0;
#X connect 190 0 189 0;
#X connect 191 0 189 1;
#X connect 192 0 387 0;
#X connect 193 0 196 0;
#X connect 194 0 193 0;
#X connect 195 0 193 1;
#X connect 196 0 387 0;
#X connect 197 0 200 0;
#X connect 198 0 197 0;
#X connect 199 0 197 1;
#X connect 200 0 387 0;
#X connect 201 0 204 0;
#X connect 202 0 201 0;
#X connect 203 0 201 1;
#X connect 204 0 387 0;
#X connect 205 0 208 0;
#X connect 206 0 205 0;
#X connect 207 0 205 1;
#X connect 208 0 387 0;
#X connect 209 0 178 0;
#X connect 210 0 182 0;
#X connect 211 0 186 0;
#X connect 212 0 190 0;
#X connect 213 0 194 0;
#X connect 214 0 198 0;
#X connect 215 0 202 0;
#X connect 216 0 206 0;
#X connect 217 0 220 0;
#X connect 218 0 217 0;
#X connect 219 0 217 1;
#X connect 220 0 388 0;
#X connect 221 0 224 0;
#X connect 222 0 221 0;
#X connect 223 0 221 1;
#X connect 224 0 388 0;
#X connect 225 0 228 0;
#X connect 226 0 225 0;
#X connect 227 0 225 1;
#X connect 228 0 388 0;
#X connect 229 0 232 0;
#X connect 230 0 229 0;
#X connect 231 0 229 1;
#X connect 232 0 388 0;
#X connect 233 0 236 0;
#X connect 234 0 233 0;
#X connect 235 0 233 1;
#X connect 236 0 388 0;
#X connect 237 0 240 0;
#X connect 238 0 237 0;
#X connect 239 0 237 1;
#X connect 240 0 388 0;
#X connect 241 0 244 0;
#X connect 242 0 241 0;
#X connect 243 0 241 1;
#X connect 244 0 388 0;
#X connect 245 0 248 0;
#X connect 246 0 245 0;
#X connect 247 0 245 1;
#X connect 248 0 388 0;
#X connect 249 0 253 0;
#X connect 249 0 254 0;
#X connect 249 0 255 0;
#X connect 249 0 256 0;
#X connect 249 0 257 0;
#X connect 249 0 258 0;
#X connect 249 0 259 0;
#X connect 249 0 260 0;
#X connect 249 0 294 0;
#X connect 249 0 295 0;
#X connect 249 0 296 0;
#X connect 249 0 297 0;
#X connect 249 0 298 0;
#X connect 249 0 299 0;
#X connect 249 0 300 0;
#X connect 249 0 301 0;
#X connect 250 0 249 0;
#X connect 251 0 252 1;
#X connect 252 0 250 0;
#X connect 253 0 218 0;
#X connect 254 0 222 0;
#X connect 255 0 226 0;
#X connect 256 0 230 0;
#X connect 257 0 234 0;
#X connect 258 0 238 0;
#X connect 259 0 242 0;
#X connect 260 0 246 0;
#X connect 261 0 252 0;
#X connect 262 0 265 0;
#X connect 263 0 262 0;
#X connect 264 0 262 1;
#X connect 265 0 388 0;
#X connect 266 0 269 0;
#X connect 267 0 266 0;
#X connect 268 0 266 1;
#X connect 269 0 388 0;
#X connect 270 0 273 0;
#X connect 271 0 270 0;
#X connect 272 0 270 1;
#X connect 273 0 388 0;
#X connect 274 0 277 0;
#X connect 275 0 274 0;
#X connect 276 0 274 1;
#X connect 277 0 388 0;
#X connect 278 0 281 0;
#X connect 279 0 278 0;
#X connect 280 0 278 1;
#X connect 281 0 388 0;
#X connect 282 0 285 0;
#X connect 283 0 282 0;
#X connect 284 0 282 1;
#X connect 285 0 388 0;
#X connect 286 0 289 0;
#X connect 287 0 286 0;
#X connect 288 0 286 1;
#X connect 289 0 388 0;
#X connect 290 0 293 0;
#X connect 291 0 290 0;
#X connect 292 0 290 1;
#X connect 293 0 388 0;
#X connect 294 0 263 0;
#X connect 295 0 267 0;
#X connect 296 0 271 0;
#X connect 297 0 275 0;
#X connect 298 0 279 0;
#X connect 299 0 283 0;
#X connect 300 0 287 0;
#X connect 301 0 291 0;
#X connect 302 0 305 0;
#X connect 303 0 302 0;
#X connect 304 0 302 1;
#X connect 305 0 389 0;
#X connect 306 0 309 0;
#X connect 307 0 306 0;
#X connect 308 0 306 1;
#X connect 309 0 389 0;
#X connect 310 0 313 0;
#X connect 311 0 310 0;
#X connect 312 0 310 1;
#X connect 313 0 389 0;
#X connect 314 0 317 0;
#X connect 315 0 314 0;
#X connect 316 0 314 1;
#X connect 317 0 389 0;
#X connect 318 0 321 0;
#X connect 319 0 318 0;
#X connect 320 0 318 1;
#X connect 321 0 389 0;
#X connect 322 0 325 0;
#X connect 323 0 322 0;
#X connect 324 0 322 1;
#X connect 325 0 389 0;
#X connect 326 0 329 0;
#X connect 327 0 326 0;
#X connect 328 0 326 1;
#X connect 329 0 389 0;
#X connect 330 0 333 0;
#X connect 331 0 330 0;
#X connect 332 0 330 1;
#X connect 333 0 389 0;
#X connect 334 0 338 0;
#X connect 334 0 339 0;
#X connect 334 0 340 0;
#X connect 334 0 341 0;
#X connect 334 0 342 0;
#X connect 334 0 343 0;
#X connect 334 0 344 0;
#X connect 334 0 345 0;
#X connect 334 0 379 0;
#X connect 334 0 380 0;
#X connect 334 0 381 0;
#X connect 334 0 382 0;
#X connect 334 0 383 0;
#X connect 334 0 384 0;
#X connect 334 0 385 0;
#X connect 334 0 386 0;
#X connect 335 0 334 0;
#X connect 336 0 337 1;
#X connect 337 0 335 0;
#X connect 338 0 303 0;
#X connect 339 0 307 0;
#X connect 340 0 311 0;
#X connect 341 0 315 0;
#X connect 342 0 319 0;
#X connect 343 0 323 0;
#X connect 344 0 327 0;
#X connect 345 0 331 0;
#X connect 346 0 337 0;
#X connect 347 0 350 0;
#X connect 348 0 347 0;
#X connect 349 0 347 1;
#X connect 350 0 389 0;
#X connect 351 0 354 0;
#X connect 352 0 351 0;
#X connect 353 0 351 1;
#X connect 354 0 389 0;
#X connect 355 0 358 0;
#X connect 356 0 355 0;
#X connect 357 0 355 1;
#X connect 358 0 389 0;
#X connect 359 0 362 0;
#X connect 360 0 359 0;
#X connect 361 0 359 1;
#X connect 362 0 389 0;
#X connect 363 0 366 0;
#X connect 364 0 363 0;
#X connect 365 0 363 1;
#X connect 366 0 389 0;
#X connect 367 0 370 0;
#X connect 368 0 367 0;
#X connect 369 0 367 1;
#X connect 370 0 389 0;
#X connect 371 0 374 0;
#X connect 372 0 371 0;
#X connect 373 0 371 1;
#X connect 374 0 389 0;
#X connect 375 0 378 0;
#X connect 376 0 375 0;
#X connect 377 0 375 1;
#X connect 378 0 389 0;
#X connect 379 0 348 0;
#X connect 380 0 352 0;
#X connect 381 0 356 0;
#X connect 382 0 360 0;
#X connect 383 0 364 0;
#X connect 384 0 368 0;
#X connect 385 0 372 0;
#X connect 386 0 376 0;
#X connect 390 0 391 0;
#X connect 390 0 407 0;
#X connect 391 0 392 0;
#X connect 393 0 73 0;
#X connect 394 0 251 0;
#X connect 395 0 336 0;
#X connect 396 0 166 0;
#X connect 397 0 401 0;
#X connect 398 0 397 0;
#X connect 398 0 399 0;
#X connect 399 0 400 0;
#X connect 400 0 401 1;
#X connect 400 0 402 0;
#X connect 401 0 403 0;
#X connect 402 0 401 0;
#X connect 403 0 404 0;
#X connect 405 0 0 0;
#X connect 407 0 406 0;
#X connect 408 0 49 0;
#X connect 409 0 66 0;
#X connect 410 0 68 0;
#X connect 411 0 88 0;
