#N canvas 434 45 1920 1026 12;
#X floatatom 339 55 5 0 0 0 - - - 0;
#X obj 307 49 tgl 25 0 empty empty empty 0 -10 0 12 #ffc7c6 #000000 #000000 0 1;
#X obj 307 84 metro;
#X obj 307 111 bng 19 250 50 0 empty empty empty 0 -10 0 12 #fcfcfc #000000 #000000;
#X obj 307 164 int 1;
#X floatatom 307 197 5 0 0 0 - - - 0;
#X obj 364 190 + 1;
#X obj 192 84 loadbang;
#X obj 263 84 sel 0;
#X obj 263 111 bng 19 250 50 0 empty empty empty 0 -10 0 12 #feffc6 #000000 #000000;
#X msg 263 138 -1;
#X text 201 114 reset;
#X obj 594 234 spigot;
#X obj 594 197 bng 19 250 50 0 empty empty empty 0 -10 0 12 #fcfcfc #000000 #000000;
#X obj 633 202 tgl 25 0 empty empty empty 0 -10 0 12 #dfdfdf #000000 #000000 0 1;
#X obj 594 267 bng 19 250 50 0 empty empty empty 0 -10 0 12 #fcfcfc #000000 #000000;
#X obj 671 233 spigot;
#X obj 671 196 bng 19 250 50 0 empty empty empty 0 -10 0 12 #fcfcfc #000000 #000000;
#X obj 710 201 tgl 25 0 empty empty empty 0 -10 0 12 #ffc7c6 #000000 #000000 0 1;
#X obj 671 266 bng 19 250 50 0 empty empty empty 0 -10 0 12 #fcfcfc #000000 #000000;
#X obj 748 234 spigot;
#X obj 748 197 bng 19 250 50 0 empty empty empty 0 -10 0 12 #fcfcfc #000000 #000000;
#X obj 787 202 tgl 25 0 empty empty empty 0 -10 0 12 #ffe3c6 #000000 #000000 0 1;
#X obj 748 267 bng 19 250 50 0 empty empty empty 0 -10 0 12 #fcfcfc #000000 #000000;
#X obj 825 233 spigot;
#X obj 825 196 bng 19 250 50 0 empty empty empty 0 -10 0 12 #fcfcfc #000000 #000000;
#X obj 864 201 tgl 25 0 empty empty empty 0 -10 0 12 #feffc6 #000000 #000000 0 1;
#X obj 825 266 bng 19 250 50 0 empty empty empty 0 -10 0 12 #fcfcfc #000000 #000000;
#X obj 904 234 spigot;
#X obj 904 197 bng 19 250 50 0 empty empty empty 0 -10 0 12 #fcfcfc #000000 #000000;
#X obj 943 202 tgl 25 0 empty empty empty 0 -10 0 12 #dfdfdf #000000 #000000 0 1;
#X obj 904 267 bng 19 250 50 0 empty empty empty 0 -10 0 12 #fcfcfc #000000 #000000;
#X obj 981 233 spigot;
#X obj 981 196 bng 19 250 50 0 empty empty empty 0 -10 0 12 #fcfcfc #000000 #000000;
#X obj 1020 201 tgl 25 0 empty empty empty 0 -10 0 12 #ffc7c6 #000000 #000000 0 1;
#X obj 981 266 bng 19 250 50 0 empty empty empty 0 -10 0 12 #fcfcfc #000000 #000000;
#X obj 1058 234 spigot;
#X obj 1058 197 bng 19 250 50 0 empty empty empty 0 -10 0 12 #fcfcfc #000000 #000000;
#X obj 1097 202 tgl 25 0 empty empty empty 0 -10 0 12 #ffe3c6 #000000 #000000 0 1;
#X obj 1058 267 bng 19 250 50 0 empty empty empty 0 -10 0 12 #fcfcfc #000000 #000000;
#X obj 1135 233 spigot;
#X obj 1135 196 bng 19 250 50 0 empty empty empty 0 -10 0 12 #fcfcfc #000000 #000000;
#X obj 1174 201 tgl 25 0 empty empty empty 0 -10 0 12 #feffc6 #000000 #000000 0 1;
#X obj 1135 266 bng 19 250 50 0 empty empty empty 0 -10 0 12 #fcfcfc #000000 #000000;
#X obj 594 311 s Kick;
#X obj 23 303 r Kick;
#X obj 23 341 bng 19 250 50 0 empty empty empty 0 -10 0 12 #fcfcfc #000000 #000000;
#X obj 23 414 readsf~;
#X obj 24 447 *~;
#X obj 93 408 vsl 19 50 0 10 0 0 empty empty empty 0 -9 0 12 #fcfcfc #000000 #000000 0 1;
#X obj 23 481 dac~;
#X msg 23 372 open samples/TR-808_Kick_Max_Tone_Max_Decay.wav \, 1;
#X floatatom 1255 132 5 0 0 0 - - - 0;
#X obj 1255 100 + 1;
#X floatatom 1273 44 5 0 0 0 - - - 0;
#X obj 1255 69 %;
#X obj 1255 160 sel 1;
#X obj 1332 160 sel 2;
#X obj 1409 160 sel 3;
#X obj 1486 160 sel 4;
#X obj 1565 160 sel 5;
#X obj 1642 160 sel 6;
#X obj 1719 160 sel 7;
#X obj 1796 160 sel 8;
#X obj 1255 223 spigot;
#X obj 1255 198 bng 19 250 50 0 empty empty empty 0 -10 0 12 #fcfcfc #000000 #000000;
#X obj 1294 189 tgl 25 0 empty empty empty 0 -10 0 12 #dfdfdf #000000 #000000 0 1;
#X obj 1255 260 bng 19 250 50 0 empty empty empty 0 -10 0 12 #fcfcfc #000000 #000000;
#X obj 1332 222 spigot;
#X obj 1332 197 bng 19 250 50 0 empty empty empty 0 -10 0 12 #fcfcfc #000000 #000000;
#X obj 1371 188 tgl 25 0 empty empty empty 0 -10 0 12 #ffc7c6 #000000 #000000 0 1;
#X obj 1332 259 bng 19 250 50 0 empty empty empty 0 -10 0 12 #fcfcfc #000000 #000000;
#X obj 1409 223 spigot;
#X obj 1409 198 bng 19 250 50 0 empty empty empty 0 -10 0 12 #fcfcfc #000000 #000000;
#X obj 1448 189 tgl 25 0 empty empty empty 0 -10 0 12 #ffe3c6 #000000 #000000 0 1;
#X obj 1409 260 bng 19 250 50 0 empty empty empty 0 -10 0 12 #fcfcfc #000000 #000000;
#X obj 1486 222 spigot;
#X obj 1486 197 bng 19 250 50 0 empty empty empty 0 -10 0 12 #fcfcfc #000000 #000000;
#X obj 1525 188 tgl 25 0 empty empty empty 0 -10 0 12 #feffc6 #000000 #000000 0 1;
#X obj 1486 259 bng 19 250 50 0 empty empty empty 0 -10 0 12 #fcfcfc #000000 #000000;
#X obj 1565 223 spigot;
#X obj 1565 198 bng 19 250 50 0 empty empty empty 0 -10 0 12 #fcfcfc #000000 #000000;
#X obj 1604 189 tgl 25 0 empty empty empty 0 -10 0 12 #dfdfdf #000000 #000000 0 1;
#X obj 1565 260 bng 19 250 50 0 empty empty empty 0 -10 0 12 #fcfcfc #000000 #000000;
#X obj 1642 222 spigot;
#X obj 1642 197 bng 19 250 50 0 empty empty empty 0 -10 0 12 #fcfcfc #000000 #000000;
#X obj 1681 188 tgl 25 0 empty empty empty 0 -10 0 12 #ffc7c6 #000000 #000000 0 1;
#X obj 1642 259 bng 19 250 50 0 empty empty empty 0 -10 0 12 #fcfcfc #000000 #000000;
#X obj 1719 223 spigot;
#X obj 1719 198 bng 19 250 50 0 empty empty empty 0 -10 0 12 #fcfcfc #000000 #000000;
#X obj 1758 189 tgl 25 0 empty empty empty 0 -10 0 12 #ffe3c6 #000000 #000000 0 1;
#X obj 1719 260 bng 19 250 50 0 empty empty empty 0 -10 0 12 #fcfcfc #000000 #000000;
#X obj 1796 222 spigot;
#X obj 1796 197 bng 19 250 50 0 empty empty empty 0 -10 0 12 #fcfcfc #000000 #000000;
#X obj 1835 188 tgl 25 0 empty empty empty 0 -10 0 12 #feffc6 #000000 #000000 0 1;
#X obj 1796 259 bng 19 250 50 0 empty empty empty 0 -10 0 12 #fcfcfc #000000 #000000;
#X obj 15 784 bng 19 250 50 0 empty empty empty 0 -10 0 12 #fcfcfc #000000 #000000;
#X obj 15 857 readsf~;
#X obj 16 890 *~;
#X obj 15 924 dac~;
#X obj 1255 306 s Snare;
#X floatatom 590 487 5 0 0 0 - - - 0;
#X obj 590 455 + 1;
#X floatatom 608 399 5 0 0 0 - - - 0;
#X obj 590 424 %;
#X obj 590 525 sel 1;
#X obj 667 525 sel 2;
#X obj 744 525 sel 3;
#X obj 820 525 sel 4;
#X obj 900 525 sel 5;
#X obj 977 525 sel 6;
#X obj 1054 525 sel 7;
#X obj 1131 525 sel 8;
#X obj 590 590 spigot;
#X obj 590 563 bng 19 250 50 0 empty empty empty 0 -10 0 12 #fcfcfc #000000 #000000;
#X obj 629 554 tgl 25 0 empty empty empty 0 -10 0 12 #dfdfdf #000000 #000000 0 1;
#X obj 590 626 bng 19 250 50 0 empty empty empty 0 -10 0 12 #fcfcfc #000000 #000000;
#X obj 667 589 spigot;
#X obj 667 562 bng 19 250 50 0 empty empty empty 0 -10 0 12 #fcfcfc #000000 #000000;
#X obj 706 553 tgl 25 0 empty empty empty 0 -10 0 12 #ffc7c6 #000000 #000000 0 1;
#X obj 667 625 bng 19 250 50 0 empty empty empty 0 -10 0 12 #fcfcfc #000000 #000000;
#X obj 744 590 spigot;
#X obj 744 563 bng 19 250 50 0 empty empty empty 0 -10 0 12 #fcfcfc #000000 #000000;
#X obj 783 554 tgl 25 0 empty empty empty 0 -10 0 12 #ffe3c6 #000000 #000000 0 1;
#X obj 744 626 bng 19 250 50 0 empty empty empty 0 -10 0 12 #fcfcfc #000000 #000000;
#X obj 821 589 spigot;
#X obj 821 562 bng 19 250 50 0 empty empty empty 0 -10 0 12 #fcfcfc #000000 #000000;
#X obj 860 553 tgl 25 0 empty empty empty 0 -10 0 12 #feffc6 #000000 #000000 0 1;
#X obj 821 625 bng 19 250 50 0 empty empty empty 0 -10 0 12 #fcfcfc #000000 #000000;
#X obj 900 590 spigot;
#X obj 900 563 bng 19 250 50 0 empty empty empty 0 -10 0 12 #fcfcfc #000000 #000000;
#X obj 939 554 tgl 25 0 empty empty empty 0 -10 0 12 #dfdfdf #000000 #000000 0 1;
#X obj 900 626 bng 19 250 50 0 empty empty empty 0 -10 0 12 #fcfcfc #000000 #000000;
#X obj 977 589 spigot;
#X obj 977 562 bng 19 250 50 0 empty empty empty 0 -10 0 12 #fcfcfc #000000 #000000;
#X obj 1016 553 tgl 25 0 empty empty empty 0 -10 0 12 #ffc7c6 #000000 #000000 0 1;
#X obj 977 625 bng 19 250 50 0 empty empty empty 0 -10 0 12 #fcfcfc #000000 #000000;
#X obj 1054 590 spigot;
#X obj 1054 563 bng 19 250 50 0 empty empty empty 0 -10 0 12 #fcfcfc #000000 #000000;
#X obj 1093 554 tgl 25 0 empty empty empty 0 -10 0 12 #ffe3c6 #000000 #000000 0 1;
#X obj 1054 626 bng 19 250 50 0 empty empty empty 0 -10 0 12 #fcfcfc #000000 #000000;
#X obj 1131 589 spigot;
#X obj 1131 562 bng 19 250 50 0 empty empty empty 0 -10 0 12 #fcfcfc #000000 #000000;
#X obj 1170 553 tgl 25 0 empty empty empty 0 -10 0 12 #feffc6 #000000 #000000 0 1;
#X obj 1131 625 bng 19 250 50 0 empty empty empty 0 -10 0 12 #fcfcfc #000000 #000000;
#X obj 25 563 bng 19 250 50 0 empty empty empty 0 -10 0 12 #fcfcfc #000000 #000000;
#X obj 25 636 readsf~;
#X obj 26 669 *~;
#X obj 25 703 dac~;
#X obj 25 525 r Snare;
#X msg 25 594 open samples/Snarderum-03.wav \, 1;
#X obj 307 227 s Clock;
#X obj 1255 17 r Clock;
#X obj 590 372 r Clock;
#X msg 15 815 open samples/hihat.wav \, 1;
#X text 1487 78 Snare;
#X text 825 445 Hi hat;
#X floatatom 93 473 5 0 0 0 - - - 0;
#X obj 102 632 vsl 19 50 0 2 0 0 empty empty empty 0 -9 0 12 #fcfcfc #000000 #000000 0 1;
#X floatatom 102 697 5 0 0 0 - - - 0;
#X obj 83 849 vsl 19 50 0 2 0 0 empty empty empty 0 -9 0 12 #fcfcfc #000000 #000000 0 1;
#X floatatom 83 914 5 0 2 0 - - - 0;
#X text 370 105 Clock;
#X floatatom 594 129 5 0 0 0 - - - 0;
#X obj 594 97 + 1;
#X floatatom 612 41 5 0 0 0 - - - 0;
#X obj 594 66 %;
#X obj 594 14 r Clock;
#X text 817 94 Kick;
#X floatatom 1255 475 5 0 0 0 - - - 0;
#X obj 1255 443 + 1;
#X floatatom 1273 387 5 0 0 0 - - - 0;
#X obj 1255 412 %;
#X obj 1255 513 sel 1;
#X obj 1332 513 sel 2;
#X obj 1409 513 sel 3;
#X obj 1485 513 sel 4;
#X obj 1565 513 sel 5;
#X obj 1642 513 sel 6;
#X obj 1719 513 sel 7;
#X obj 1796 513 sel 8;
#X obj 1255 578 spigot;
#X obj 1255 551 bng 19 250 50 0 empty empty empty 0 -10 0 12 #fcfcfc #000000 #000000;
#X obj 1294 542 tgl 25 0 empty empty empty 0 -10 0 12 #dfdfdf #000000 #000000 0 1;
#X obj 1255 614 bng 19 250 50 0 empty empty empty 0 -10 0 12 #fcfcfc #000000 #000000;
#X obj 1332 577 spigot;
#X obj 1332 550 bng 19 250 50 0 empty empty empty 0 -10 0 12 #fcfcfc #000000 #000000;
#X obj 1371 541 tgl 25 0 empty empty empty 0 -10 0 12 #ffc7c6 #000000 #000000 0 1;
#X obj 1332 613 bng 19 250 50 0 empty empty empty 0 -10 0 12 #fcfcfc #000000 #000000;
#X obj 1409 578 spigot;
#X obj 1409 551 bng 19 250 50 0 empty empty empty 0 -10 0 12 #fcfcfc #000000 #000000;
#X obj 1448 542 tgl 25 0 empty empty empty 0 -10 0 12 #ffe3c6 #000000 #000000 0 1;
#X obj 1409 614 bng 19 250 50 0 empty empty empty 0 -10 0 12 #fcfcfc #000000 #000000;
#X obj 1486 577 spigot;
#X obj 1486 550 bng 19 250 50 0 empty empty empty 0 -10 0 12 #fcfcfc #000000 #000000;
#X obj 1525 541 tgl 25 0 empty empty empty 0 -10 0 12 #feffc6 #000000 #000000 0 1;
#X obj 1486 613 bng 19 250 50 0 empty empty empty 0 -10 0 12 #fcfcfc #000000 #000000;
#X obj 1565 578 spigot;
#X obj 1565 551 bng 19 250 50 0 empty empty empty 0 -10 0 12 #fcfcfc #000000 #000000;
#X obj 1604 542 tgl 25 0 empty empty empty 0 -10 0 12 #dfdfdf #000000 #000000 0 1;
#X obj 1565 614 bng 19 250 50 0 empty empty empty 0 -10 0 12 #fcfcfc #000000 #000000;
#X obj 1642 577 spigot;
#X obj 1642 550 bng 19 250 50 0 empty empty empty 0 -10 0 12 #fcfcfc #000000 #000000;
#X obj 1681 541 tgl 25 0 empty empty empty 0 -10 0 12 #ffc7c6 #000000 #000000 0 1;
#X obj 1642 613 bng 19 250 50 0 empty empty empty 0 -10 0 12 #fcfcfc #000000 #000000;
#X obj 1719 578 spigot;
#X obj 1719 551 bng 19 250 50 0 empty empty empty 0 -10 0 12 #fcfcfc #000000 #000000;
#X obj 1758 542 tgl 25 0 empty empty empty 0 -10 0 12 #ffe3c6 #000000 #000000 0 1;
#X obj 1719 614 bng 19 250 50 0 empty empty empty 0 -10 0 12 #fcfcfc #000000 #000000;
#X obj 1796 577 spigot;
#X obj 1796 550 bng 19 250 50 0 empty empty empty 0 -10 0 12 #fcfcfc #000000 #000000;
#X obj 1835 541 tgl 25 0 empty empty empty 0 -10 0 12 #feffc6 #000000 #000000 0 1;
#X obj 1796 613 bng 19 250 50 0 empty empty empty 0 -10 0 12 #fcfcfc #000000 #000000;
#X obj 1255 360 r Clock;
#X text 1490 433 Clap;
#X obj 1255 665 s Clap;
#X obj 221 796 bng 19 250 50 0 empty empty empty 0 -10 0 12 #fcfcfc #000000 #000000;
#X obj 221 869 readsf~;
#X obj 222 902 *~;
#X obj 221 936 dac~;
#X obj 289 861 vsl 19 50 0 2 0 0 empty empty empty 0 -9 0 12 #fcfcfc #000000 #000000 0 1;
#X floatatom 289 926 5 0 2 0 - - - 0;
#X obj 221 758 r Clap;
#X msg 221 827 open samples/06.wav \, 1;
#X obj 472 9 loadbang;
#X msg 472 46 8;
#X obj 472 83 s steps;
#X obj 658 15 r steps;
#X obj 1318 17 r steps;
#X obj 653 372 r steps;
#X obj 1316 361 r steps;
#X msg 27 72 60000;
#X obj 27 17 loadbang;
#X obj 94 17 loadbang;
#X msg 94 47 90;
#X floatatom 94 76 5 0 0 0 - - - 0;
#X floatatom 76 180 5 0 0 0 - - - 0;
#X obj 76 111 bng 19 250 50 0 empty empty empty 0 -10 0 12 #fcfcfc #000000 #000000;
#X obj 76 151 /;
#X obj 76 211 s tempo;
#X obj 339 17 r tempo;
#X text 134 78 bpm;
#X obj 594 157 sel 1 2 3 4 5 6 7 8;
#X obj 15 746 r HiHat;
#X obj 590 677 s HiHat;
#X text 50 241 length of each quarternote;
#X connect 0 0 2 1;
#X connect 1 0 2 0;
#X connect 1 0 8 0;
#X connect 2 0 3 0;
#X connect 3 0 4 0;
#X connect 4 0 5 0;
#X connect 4 0 6 0;
#X connect 5 0 151 0;
#X connect 6 0 4 1;
#X connect 7 0 9 0;
#X connect 8 0 9 0;
#X connect 9 0 10 0;
#X connect 10 0 4 0;
#X connect 12 0 15 0;
#X connect 13 0 12 0;
#X connect 14 0 12 1;
#X connect 15 0 44 0;
#X connect 16 0 19 0;
#X connect 17 0 16 0;
#X connect 18 0 16 1;
#X connect 19 0 44 0;
#X connect 20 0 23 0;
#X connect 21 0 20 0;
#X connect 22 0 20 1;
#X connect 23 0 44 0;
#X connect 24 0 27 0;
#X connect 25 0 24 0;
#X connect 26 0 24 1;
#X connect 27 0 44 0;
#X connect 28 0 31 0;
#X connect 29 0 28 0;
#X connect 30 0 28 1;
#X connect 31 0 44 0;
#X connect 32 0 35 0;
#X connect 33 0 32 0;
#X connect 34 0 32 1;
#X connect 35 0 44 0;
#X connect 36 0 39 0;
#X connect 37 0 36 0;
#X connect 38 0 36 1;
#X connect 39 0 44 0;
#X connect 40 0 43 0;
#X connect 41 0 40 0;
#X connect 42 0 40 1;
#X connect 43 0 44 0;
#X connect 45 0 46 0;
#X connect 46 0 51 0;
#X connect 47 0 48 0;
#X connect 48 0 50 0;
#X connect 48 0 50 1;
#X connect 49 0 157 0;
#X connect 51 0 47 0;
#X connect 52 0 56 0;
#X connect 52 0 57 0;
#X connect 52 0 58 0;
#X connect 52 0 59 0;
#X connect 52 0 60 0;
#X connect 52 0 61 0;
#X connect 52 0 62 0;
#X connect 52 0 63 0;
#X connect 53 0 52 0;
#X connect 54 0 55 1;
#X connect 55 0 53 0;
#X connect 56 0 65 0;
#X connect 57 0 69 0;
#X connect 58 0 73 0;
#X connect 59 0 77 0;
#X connect 60 0 81 0;
#X connect 61 0 85 0;
#X connect 62 0 89 0;
#X connect 63 0 93 0;
#X connect 64 0 67 0;
#X connect 65 0 64 0;
#X connect 66 0 64 1;
#X connect 67 0 100 0;
#X connect 68 0 71 0;
#X connect 69 0 68 0;
#X connect 70 0 68 1;
#X connect 71 0 100 0;
#X connect 72 0 75 0;
#X connect 73 0 72 0;
#X connect 74 0 72 1;
#X connect 75 0 100 0;
#X connect 76 0 79 0;
#X connect 77 0 76 0;
#X connect 78 0 76 1;
#X connect 79 0 100 0;
#X connect 80 0 83 0;
#X connect 81 0 80 0;
#X connect 82 0 80 1;
#X connect 83 0 100 0;
#X connect 84 0 87 0;
#X connect 85 0 84 0;
#X connect 86 0 84 1;
#X connect 87 0 100 0;
#X connect 88 0 91 0;
#X connect 89 0 88 0;
#X connect 90 0 88 1;
#X connect 91 0 100 0;
#X connect 92 0 95 0;
#X connect 93 0 92 0;
#X connect 94 0 92 1;
#X connect 95 0 100 0;
#X connect 96 0 154 0;
#X connect 97 0 98 0;
#X connect 98 0 99 0;
#X connect 98 0 99 1;
#X connect 101 0 105 0;
#X connect 101 0 106 0;
#X connect 101 0 107 0;
#X connect 101 0 108 0;
#X connect 101 0 109 0;
#X connect 101 0 110 0;
#X connect 101 0 111 0;
#X connect 101 0 112 0;
#X connect 102 0 101 0;
#X connect 103 0 104 1;
#X connect 104 0 102 0;
#X connect 105 0 114 0;
#X connect 106 0 118 0;
#X connect 107 0 122 0;
#X connect 108 0 126 0;
#X connect 109 0 130 0;
#X connect 110 0 134 0;
#X connect 111 0 138 0;
#X connect 112 0 142 0;
#X connect 113 0 116 0;
#X connect 114 0 113 0;
#X connect 115 0 113 1;
#X connect 116 0 244 0;
#X connect 117 0 120 0;
#X connect 118 0 117 0;
#X connect 119 0 117 1;
#X connect 120 0 244 0;
#X connect 121 0 124 0;
#X connect 122 0 121 0;
#X connect 123 0 121 1;
#X connect 124 0 244 0;
#X connect 125 0 128 0;
#X connect 126 0 125 0;
#X connect 127 0 125 1;
#X connect 128 0 244 0;
#X connect 129 0 132 0;
#X connect 130 0 129 0;
#X connect 131 0 129 1;
#X connect 132 0 244 0;
#X connect 133 0 136 0;
#X connect 134 0 133 0;
#X connect 135 0 133 1;
#X connect 136 0 244 0;
#X connect 137 0 140 0;
#X connect 138 0 137 0;
#X connect 139 0 137 1;
#X connect 140 0 244 0;
#X connect 141 0 144 0;
#X connect 142 0 141 0;
#X connect 143 0 141 1;
#X connect 144 0 244 0;
#X connect 145 0 150 0;
#X connect 146 0 147 0;
#X connect 147 0 148 0;
#X connect 147 0 148 1;
#X connect 149 0 145 0;
#X connect 150 0 146 0;
#X connect 152 0 55 0;
#X connect 153 0 104 0;
#X connect 154 0 97 0;
#X connect 157 0 48 1;
#X connect 158 0 159 0;
#X connect 159 0 147 1;
#X connect 160 0 161 0;
#X connect 161 0 98 1;
#X connect 163 0 242 0;
#X connect 164 0 163 0;
#X connect 165 0 166 1;
#X connect 166 0 164 0;
#X connect 167 0 166 0;
#X connect 169 0 173 0;
#X connect 169 0 174 0;
#X connect 169 0 175 0;
#X connect 169 0 176 0;
#X connect 169 0 177 0;
#X connect 169 0 178 0;
#X connect 169 0 179 0;
#X connect 169 0 180 0;
#X connect 170 0 169 0;
#X connect 171 0 172 1;
#X connect 172 0 170 0;
#X connect 173 0 182 0;
#X connect 174 0 186 0;
#X connect 175 0 190 0;
#X connect 176 0 194 0;
#X connect 177 0 198 0;
#X connect 178 0 202 0;
#X connect 179 0 206 0;
#X connect 180 0 210 0;
#X connect 181 0 184 0;
#X connect 182 0 181 0;
#X connect 183 0 181 1;
#X connect 184 0 215 0;
#X connect 185 0 188 0;
#X connect 186 0 185 0;
#X connect 187 0 185 1;
#X connect 188 0 215 0;
#X connect 189 0 192 0;
#X connect 190 0 189 0;
#X connect 191 0 189 1;
#X connect 192 0 215 0;
#X connect 193 0 196 0;
#X connect 194 0 193 0;
#X connect 195 0 193 1;
#X connect 196 0 215 0;
#X connect 197 0 200 0;
#X connect 198 0 197 0;
#X connect 199 0 197 1;
#X connect 200 0 215 0;
#X connect 201 0 204 0;
#X connect 202 0 201 0;
#X connect 203 0 201 1;
#X connect 204 0 215 0;
#X connect 205 0 208 0;
#X connect 206 0 205 0;
#X connect 207 0 205 1;
#X connect 208 0 215 0;
#X connect 209 0 212 0;
#X connect 210 0 209 0;
#X connect 211 0 209 1;
#X connect 212 0 215 0;
#X connect 213 0 172 0;
#X connect 216 0 223 0;
#X connect 217 0 218 0;
#X connect 218 0 219 0;
#X connect 218 0 219 1;
#X connect 220 0 221 0;
#X connect 221 0 218 1;
#X connect 222 0 216 0;
#X connect 223 0 217 0;
#X connect 224 0 225 0;
#X connect 225 0 226 0;
#X connect 227 0 165 0;
#X connect 228 0 54 0;
#X connect 229 0 103 0;
#X connect 230 0 171 0;
#X connect 231 0 238 0;
#X connect 232 0 231 0;
#X connect 233 0 234 0;
#X connect 233 0 237 0;
#X connect 234 0 235 0;
#X connect 235 0 237 0;
#X connect 235 0 238 1;
#X connect 236 0 239 0;
#X connect 237 0 238 0;
#X connect 238 0 236 0;
#X connect 240 0 0 0;
#X connect 242 0 13 0;
#X connect 242 1 17 0;
#X connect 242 2 21 0;
#X connect 242 3 25 0;
#X connect 242 4 29 0;
#X connect 242 5 33 0;
#X connect 242 6 37 0;
#X connect 242 7 41 0;
#X connect 243 0 96 0;
