#N canvas -9 -9 1920 1026 12;
#X obj 226 170 noise~;
#X obj 228 312 *~ 0.5;
#X obj 235 410 dac~;
#X obj 517 726 ui.spectroscope~ @size 150 100 @receive "(null)" @send
"(null)" @pinned 0 @background_color 0.93 0.93 0.93 1 @border_color
0.6 0.6 0.6 1 @label_color 0 0 0 1 @active_color 0 0.75 1 1 @scale_color
0.6 0.6 0.6 1 @fontname "Helvetica" @fontweight "normal" @fontslant
"roman" @fontsize 11 @label "(null)" @label_inner 0 @label_side "top"
@label_align "left" @label_valign "top" @label_margins 0 0 @refresh
100 @log_scale 1;
#X obj 521 577 ui.scope~ @size 150 100 @receive "(null)" @send "(null)"
@pinned 0 @background_color 0.93 0.93 0.93 1 @border_color 0.6 0.6
0.6 1 @label_color 0 0 0 1 @active_color 0 0.75 1 1 @fontname "Helvetica"
@fontweight "normal" @fontslant "roman" @fontsize 11 @label "(null)"
@label_inner 0 @label_side "top" @label_align "left" @label_valign
"top" @label_margins 0 0 @max 1 @min -1 @window 2048 @refresh 40;
#X obj 227 245 lop~;
#X floatatom 294 170 5 0 0 0 - - -;
#X text 315 149 cutoff;
#X obj 320 42 hsl 128 15 0 127 0 0 empty empty empty -2 -8 0 10 -262144
-1 -1 0 1;
#X obj 310 106 * 10;
#X obj 476 179 noise~;
#X obj 478 321 *~ 0.5;
#X obj 485 419 dac~;
#X floatatom 544 179 5 0 0 0 - - -;
#X text 561 154 cutoff;
#X obj 477 254 hip~;
#X obj 534 44 hsl 128 15 0 127 0 0 empty empty empty -2 -8 0 10 -262144
-1 -1 10200 1;
#X obj 524 108 * 40;
#X obj 809 183 noise~;
#X obj 811 325 *~ 0.5;
#X obj 818 423 dac~;
#X floatatom 877 183 5 0 0 0 - - -;
#X text 888 159 cutoff;
#X text 898 256 numeros arbitrarios solo para agrandar la caja;
#X obj 810 258 bp~ 0 0;
#X floatatom 946 183 5 0 0 0 - - -;
#X text 965 159 resonance / Q factor;
#X connect 0 0 5 0;
#X connect 5 0 1 0;
#X connect 6 0 5 1;
#X connect 8 0 9 0;
#X connect 9 0 6 0;
#X connect 10 0 15 0;
#X connect 13 0 15 1;
#X connect 15 0 11 0;
#X connect 16 0 17 0;
#X connect 17 0 13 0;
#X connect 18 0 24 0;
#X connect 19 0 20 0;
#X connect 19 0 20 1;
#X connect 19 0 4 0;
#X connect 19 0 3 0;
#X connect 21 0 24 1;
#X connect 24 0 19 0;
#X connect 25 0 24 2;
